<svg id="Слой_1" data-name="Слой 1" xmlns="http://www.w3.org/2000/svg" xmlns:xlink="http://www.w3.org/1999/xlink" viewBox="0 0 250.51 256.34"><defs><style>.cls-1,.cls-10,.cls-11,.cls-3,.cls-4,.cls-5,.cls-6,.cls-7,.cls-8,.cls-9{fill:none;}.cls-2{fill:#636363;}.cls-10,.cls-11,.cls-3,.cls-4,.cls-5,.cls-6,.cls-7,.cls-8,.cls-9{stroke:#3f3f3f;}.cls-3{stroke-width:2.5px;}.cls-18,.cls-4{stroke-width:0.5px;}.cls-5{stroke-width:0.75px;}.cls-7{stroke-width:1.25px;}.cls-8{stroke-width:1.5px;}.cls-9{stroke-width:1.75px;}.cls-10{stroke-width:2px;}.cls-11{stroke-width:2.25px;}.cls-12{fill:#878787;}.cls-13{fill:#a0a0a0;}.cls-14{fill:url(#Undulating_Fine_Lines);}.cls-15{fill:#ccc;}.cls-16{fill:#8c97a3;}.cls-17{fill:url(#USGS_21_Intricate_Surface);}.cls-18{fill:#898989;stroke:#bfbfbf;stroke-miterlimit:10;}.cls-19{fill:#c1c1c1;}.cls-20{fill:#b2b2b2;}</style><pattern id="Undulating_Fine_Lines" data-name="Undulating Fine Lines" width="60.75" height="72" patternTransform="matrix(0.96, 0, 0, -0.96, -157.91, 807.17)" patternUnits="userSpaceOnUse" viewBox="0 0 60.75 72"><rect class="cls-1" width="60.75" height="72"/><rect class="cls-1" width="60.75" height="72"/><line class="cls-3" x1="60.75" y1="72" x2="60.75"/><line class="cls-4" x1="30.38" y1="72" x2="30.38"/><line class="cls-5" x1="26.58" y1="72" x2="26.58"/><line class="cls-6" x1="22.78" y1="72" x2="22.78"/><line class="cls-7" x1="18.98" y1="72" x2="18.98"/><line class="cls-8" x1="15.19" y1="72" x2="15.19"/><line class="cls-9" x1="11.39" y1="72" x2="11.39"/><line class="cls-10" x1="7.59" y1="72" x2="7.59"/><line class="cls-11" x1="3.8" y1="72" x2="3.8"/><line class="cls-3" y1="72"/><line class="cls-5" x1="34.17" y1="72" x2="34.17"/><line class="cls-6" x1="37.97" y1="72" x2="37.97"/><line class="cls-7" x1="41.76" y1="72" x2="41.76"/><line class="cls-8" x1="45.56" y1="72" x2="45.56"/><line class="cls-9" x1="49.36" y1="72" x2="49.36"/><line class="cls-10" x1="53.16" y1="72" x2="53.16"/><line class="cls-11" x1="56.95" y1="72" x2="56.95"/><line class="cls-3" x1="60.75" y1="72" x2="60.75"/><line class="cls-3" y1="72"/></pattern><pattern id="USGS_21_Intricate_Surface" data-name="USGS 21 Intricate Surface" width="54" height="54" patternTransform="matrix(0.96, 0, 0, -0.96, -164.46, 772.57)" patternUnits="userSpaceOnUse" viewBox="0 0 54 54"><rect class="cls-1" width="54" height="54"/><rect class="cls-1" width="54" height="54"/><path class="cls-2" d="M22.58-1.48c-.75-.5-1.31-4.69-2.06-5.25-.29-.22-.75-.69-.75-.94,0-.5-.27-.44-.27-.94,0-1-.74-2.31-2.12-2-.36.08-.67,1,1.38,2.15.22.12,0,.91.14,1.34,2,5.28,3.87,9.6,4.43,8.28Z"/><path class="cls-2" d="M28.33-2.49c-.16.48-.43.76-.43,1.24l-3.28-.68c-.89,1,1.12,1.39,2.49,2.05a23.29,23.29,0,0,0,2.71,1.42C29.62.45,28.65-1.17,28.33-2.49Z"/><path class="cls-2" d="M48.75-5.06a1,1,0,0,0-.5-1.32A.79.79,0,0,0,48-6.46c-.86-.13-2-.42-2-.86a3.33,3.33,0,0,0-2.47-3,14.87,14.87,0,0,0,5.17,5.37c.25.17,0,.94.15,1.35.66,1.33,2.65-.12,2.84,2.29,0,.23-.41.49-.66.74,2.11-.6,1.86,2.13,3.75,2.25V.18a3.62,3.62,0,0,1-2.26-.73C50.18-1.69,52.58-4.6,48.75-5.06Z"/><path class="cls-2" d="M3.94-6.56C3.59-4.56,6.59-.71,7.5.94A1.83,1.83,0,0,0,7.75-.75C7.37-2.75,5.12-4,5.14-6.6,4.58-7.54,4.64-8.16,3-8.06Z"/><path class="cls-2" d="M11.44-1.31A3.28,3.28,0,0,1,10.69.94,1,1,0,0,0,12,.44a.79.79,0,0,0,.08-.26A3.56,3.56,0,0,0,11.44-1.31Z"/><path class="cls-2" d="M2.25-1.13C.46-.89,2,.46,1.5,1.12,3.69,1,.93-.73,2.25-1.13Z"/><path class="cls-2" d="M13.6-2.2C15.25-1,15.86,2.71,17.75,3.5c-1.52-1.15-1.67-4.89-2.88-6.19C12.55-5.18,9.3-6.51,7.58-9.61c-.62-1.12.7-2.71-.83-3.71-.26,2.43-.23,5,1.66,6.56S11.61-3.69,13.6-2.2Z"/><path class="cls-2" d="M36.5-1.75c-.44-.49-1.18.08-1.32.68-.23,1-1.2,2.61-.08,3a3.77,3.77,0,0,1,3-.75C35.52,1.2,37.22-1,36.5-1.75Z"/><path class="cls-2" d="M44-2.45c.16-.3.75.1,1,.45-1.06.61.11,2.17-1.2,2.39-.48.08-1-.48-1.73-.38C42.65-1.09,43.36-1.32,44-2.45Z"/><path class="cls-2" d="M-5.25-5.06a1,1,0,0,0-.48-1.33A.92.92,0,0,0-6-6.47c-.86-.13-2-.42-2-.86a3.33,3.33,0,0,0-2.47-3A14.87,14.87,0,0,0-5.3-5c.25.17,0,.94.15,1.35.66,1.33,2.65-.12,2.84,2.29,0,.23-.41.49-.66.74C-.86-1.18-1.11,1.55.78,1.67V.17A3.62,3.62,0,0,1-1.48-.56C-3.82-1.69-1.42-4.6-5.25-5.06Z"/><path class="cls-2" d="M53.27,10.82c.83.31,1.72-.69,2.13-.5,2.15,1,2,3.57,4.67,1.39,0,0,.61.43.58.64-.12.76-.91,1.41-.6,2.25.21.58.8.7,1.41.9,1.86.62-.47,2.49,2.19,3.82.3.15.34,1.41,0,2-.79,1.26-2.34.79-3.63.83a3.56,3.56,0,0,1,3,1.5l-.75-1.5,3-1.5c-.5-.25-1.23-.41-1.38-.8-.35-.87.15-2.08-.25-2.89-.1-.2-1,.1-1.27-.15-1.22-1.43-.59-4-1.83-4.85-2-1.41-6-1-7-4.15-.17-.56,1.14-1.27,2-1.32s1.85.68,2.24,2.15a2,2,0,0,1,.81-2.09C60.06,6,60,9,61.49,8.55a1.4,1.4,0,0,0,.66-1.33,1.65,1.65,0,0,0-1.37-.71c-.25,0-.59.62-.71.56-1.54-.66-3.58-.47-4.47-2.18a3.43,3.43,0,0,1-.07-1.46c-.82,0-2.15-.29-2.06.73s1,2,.46,3c-.21.41-.9.55-1.4.8Z"/><path class="cls-2" d="M54.75,19.87c-1.59-.17-.68.91-.75,1.5Z"/><path class="cls-2" d="M54.38,44.62c-.1-2.45-.17-1.65-2.62-2.44.5.25,2,1,2.1,1.32.24.78-.09,1.14.32,1.84-.19.75-1.48.75-.8,1.78,1,1.53.21,3.75,2.13,4.53.43.18.24-.47.74-.47C56.25,49.12,54.47,46.84,54.38,44.62Z"/><path class="cls-2" d="M52.5,16.69c.52,1.46,1.83,1.35,3,1.5C54.77,17.15,53.6,17,52.5,16.69Z"/><path class="cls-2" d="M5.63,24.94a2.3,2.3,0,0,0-.74,0,5,5,0,0,0,1.5,2.25c.25-.5.75-1.08.62-1.46S6.16,25.11,5.63,24.94Z"/><path class="cls-2" d="M22.58,52.52c-.75-.5-1.31-4.69-2.06-5.25-.29-.22-.75-.69-.75-.94,0-.5-.27-.44-.27-.94,0-1-.74-2.31-2.12-2-.36.08-.67,1,1.38,2.15.22.12,0,.91.14,1.34,2,5.28,3.87,9.6,4.43,8.28Z"/><path class="cls-2" d="M14.26,44c-.72.24-1.69,1.07-1.59,1.32.92,2.33,1.82,3.3,2.75,3.34s-1.22-1.44-1.7-2.47,1.94-2.47,1.52-3.09S14.78,43.43,14.26,44Z"/><path class="cls-2" d="M12,42.94c-.58-1.92-.39-2.11-3-3,.76.23.56-.06.75,2.25C9.77,42.48,11.5,42.69,12,42.94Z"/><path class="cls-2" d="M9.73,33.94c-.21-.52-.45-1.32-.75-1.35-2-.18-2.4-1.71-3-3.16,1.3-.36,2.23-1.66,3.75-1.5-.7-.4-1.49-1.13-2.17-.64-.25.18,0,1.18-.13,1.24-2.87,1-2.15,3.14-.58,4.52.16.14,1-.64,1.3-.48,1.26.71-.48,4.55.83,3.61.65-.7,1.68-1.45,2.83.12.5.68.17,1.88.17,2.88.38.75,2.06.32,2.1-.75C14.19,35.85,10.64,36.24,9.73,33.94Z"/><path class="cls-2" d="M18.74,36.2c-.23-.29-.49-.68-.74-.68s-.5.42-.75.67c.5.25,1.32.47,1.34.76.12,1.46-.23,3.15-2.09,3.74C19.54,41.6,20.38,38.26,18.74,36.2Z"/><path class="cls-2" d="M21.92,34.67c.31,3.9-.55,6,3.58,4.51.94-1.31-1.82-.21-2.12-.82-.15-.31,1.68-1,1.55-1.43s-2.11-.39-2.35-.8c-.43-.75.25-1.5.66-2.2C22.75,34.19,21.91,34.46,21.92,34.67Z"/><path class="cls-2" d="M26.21,34c-.12,0-.46.4-.71.65.8.43,1.3,2.11,2.08,1.33S27,33.75,26.21,34Z"/><path class="cls-2" d="M15.5,27.25c-.44-.49-1.18.08-1.32.68-.23,1-1.2,2.61-.08,3a3.77,3.77,0,0,1,3-.75C14.52,30.2,16.22,28,15.5,27.25Z"/><path class="cls-2" d="M31,37.87c2.79.38,3,2.78,4.58,4.23.27.26,1-.08,1.35.17a2.86,2.86,0,0,1,.82,2.92c1.25-1.66,2.63.62,3.55-.19,1.68-1.53,1.51-4,4-5-.39-1.91-2.09-2.94-3-4.5.81,2.63,2.84,5.43-.75,6.75.25.25.67.5.67.75a1.7,1.7,0,0,1-.71,1.39,2.25,2.25,0,0,1-2.84-.7c-.95-1.77-1.52-1.91-2.9-3.18-.67-.61,0-2.41-1-3.51-.25.25-.63.83-.73.65-1-1.78-2.27-1.59-2.64-.46Z"/><path class="cls-2" d="M30.43,41.68h0c-.2.15-1.26-.41-1.27-.69-.08-1.62-.38-3.28-2.41-3,2.41,2,3.1,4.92,4.41,7.55.44.9-2.66,3.14-1.41,3.89L32,48.5c.65.7,1.42,1.16,3,0-1.07,0-2.33.2-2.89-.81-.93-1.69-.11-2.58-.27-4.43,0-.29-1.07-.42-1.22-.81A2.49,2.49,0,0,1,30.43,41.68Z"/><path class="cls-2" d="M28.33,51.51c-.16.48-.43.76-.43,1.24l-3.28-.68c-.91,1,1.1,1.4,2.48,2.06a23.15,23.15,0,0,0,2.7,1.42C29.62,54.45,28.65,52.83,28.33,51.51Z"/><path class="cls-2" d="M38.25,12.94c.48,1.06,1.43.7,2.25.75C40,12.75,39.14,12.77,38.25,12.94Z"/><path class="cls-2" d="M47.57,51.93c-.45-4.31-.57,0-.82,0,.71.28,1.75.25,1.5,1.5A4.85,4.85,0,0,1,47.57,51.93Z"/><path class="cls-2" d="M48.75,48.94a1,1,0,0,0-.48-1.33.92.92,0,0,0-.27-.08c-.86-.13-2-.42-2-.86a3.33,3.33,0,0,0-2.47-3A14.87,14.87,0,0,0,48.7,49c.25.17-.05.94.15,1.35.66,1.33,2.65-.12,2.84,2.29,0,.23-.41.49-.66.74,2.11-.6,1.86,2.13,3.75,2.25v-1.5a3.62,3.62,0,0,1-2.26-.73C50.18,52.31,52.58,49.4,48.75,48.94Z"/><path class="cls-2" d="M50.94,43c-.2-.91-.59-2-1.47-2.12-.7-.13-1.47-1.07-2.22,1.36,2.33-.74,3,1.21,3.75,3A10.48,10.48,0,0,0,50.94,43Z"/><path class="cls-2" d="M47.32,35.4a3.47,3.47,0,0,1-.07-1.47,2.4,2.4,0,0,0-.58,2.87c.28.37,1.33.12,2.08.12A6.89,6.89,0,0,1,47.32,35.4Z"/><path class="cls-2" d="M34.75,31.69c0,.5.26,1.24.06,1.36-.77.48-1.91.32-2.91.42.28.23.52.55.83.62.87.22,1.72-.87,2-.69,2,1.12,4.17,4.7,5.79,6.33.23-.28-1-2.6-1-2.67C37.74,34.82,36.48,33.85,34.75,31.69Z"/><path class="cls-2" d="M38.78,29.77c-.66.43-2,.4-1.35,1.47,1.29,2.16,4.12,2.18,5.88,3.83.44-2.11,3.16-1.61,4.42-3.07.25-.3,0-.93.12-1.42.18-.77.21-1.76,1.46-1.51l-.75-.75c-1.33,2-1.62-.22-3,0,.5.25,1.25.41,1.37.79a3.38,3.38,0,0,1-.65,3.67c-.41.37-1.11.81-1.39.65-.9-.51-1-1.74-.83-2.86-1.22,1.13-1.79,3.79-3.62,2.77a10.48,10.48,0,0,1-2.14-2.22c-1.09-1.33,2.43-.94,2-2.81A9.55,9.55,0,0,1,38.78,29.77Z"/><path class="cls-2" d="M31.85,29.49c.14-.18,1,.3,1.25.09.46-.47,1.83-1.12,2-1.86.44.34,1.17.66,1.18,1,0,1-2.46,1.16-3.88,1.65a2.07,2.07,0,0,0-1.21,1.94C31.35,31.36,31.29,30.2,31.85,29.49Z"/><path class="cls-2" d="M28.41,29.91c.49-1.61-.84-1.1-1.41-.16-.37.94-.92,3.74,1.5,3.85.24,0,.5-.41.75-.66C28.72,32.49,26.7,35.5,28.41,29.91Z"/><path class="cls-2" d="M3.94,47.44c-.35,2,2.65,5.84,3.56,7.5a1.83,1.83,0,0,0,.25-1.69c-.38-2-2.63-3.25-2.61-5.85-.56-.94-.5-1.56-2.14-1.46Z"/><path class="cls-2" d="M1.25,39.62c2.29,1.26,0,1.4,2.69,2.56,1.31-.38,1.6-2,1.69-3.38,0-.32-.37-1.38-.37-1.88l-.75,1.5c-.26.51-.45,1.78-.62,1.81A3.91,3.91,0,0,1,1.25,39.62Z"/><path class="cls-2" d="M17.13,51.62v1.5a3.28,3.28,0,0,1,2.25-.75Z"/><path class="cls-2" d="M3.84,32.59c.5-1.59-.84-1.09-1.4-.15-.37.94-.92,3.74,1.5,3.85.24,0,.49-.41.75-.66C4.16,35.17,2.13,38.18,3.84,32.59Z"/><path class="cls-2" d="M-.73,10.82c.83.31,1.72-.69,2.13-.5,2.15,1,2,3.57,4.67,1.39,0,0,.61.43.58.64-.12.76-.91,1.41-.6,2.25.21.58.8.7,1.41.9,1.86.63-.46,2.5,2.19,3.83.3.15.34,1.41,0,2-.79,1.26-2.34.79-3.63.83a3.56,3.56,0,0,1,3,1.5l-.75-1.5,3-1.5c-.5-.25-1.23-.41-1.38-.8C9.54,19,10,17.78,9.64,17c-.1-.2-1,.1-1.27-.15-1.22-1.43-.59-4-1.83-4.85-2-1.41-6-1-7-4.15-.17-.56,1.14-1.27,2-1.32s1.85.68,2.24,2.15a2,2,0,0,1,.81-2.09C6,6,5.92,9,7.46,8.5a1.4,1.4,0,0,0,.66-1.33,1.65,1.65,0,0,0-1.37-.71c-.25,0-.58.62-.71.56C4.5,6.36,2.46,6.55,1.57,4.84A3.43,3.43,0,0,1,1.5,3.38c-.82.05-2.15-.29-2.06.73s1,2,.46,3c-.21.41-.9.55-1.4.8Z"/><path class="cls-2" d="M10.21,3.37c.39.14.54.88.79,1.38L12.5,4c1.33,3.25,3.59,7.42,7.5,7.5V10a2.06,2.06,0,0,1-2.13-.82C17.19,8,19.42,7.31,17.75,5.5c0,1.3.41,3.13-.83,3.5-1.5.45-2.48-1.86-2.17-3.5-.5,0-1.27.13-1.36-.07-.92-2-3.3-2.38-3.89-4.43C8.27,2.35,6.11,2.65,5.75,4.75,7.58,5.24,8.58,2.78,10.21,3.37Z"/><path class="cls-2" d="M.75,19.87c-1.59-.17-.68.91-.75,1.5Z"/><path class="cls-2" d="M4.62,20a2.7,2.7,0,0,0,.63-2.34c-.5.25-1.34.51-1.33.74C4,20,2.42,21.23,3,22.87,4,22.14,4,20.84,4.62,20Z"/><path class="cls-2" d="M.75,24.37c-.21,1.67,1.11.28,1.5.75Z"/><path class="cls-2" d="M14.33,22.87c-.13-2.54,1.82-4,3.67-5.25A3.28,3.28,0,0,1,15.74,19c-.23,0-.49-.57-.74-.57-.5,0-1.31.38-1.34.68-.13,1.45-.78,2.94.45,4.59.16.21-.36.9-.61,1.4L12,24.35l-1.5,3c2.28-.32,2.59-3,4.5-3.75C14.75,23.37,14.34,23.13,14.33,22.87Z"/><path class="cls-2" d="M19.14,19.41c1.27-.13,1.25.95,1.25,1.64s-.45,1,1.18,2.58c.32.31.38,1.38.72,2.12l.82-.68c-.47-.3-1.15-.51-1.32-.93-.24-.64.32-1.66,0-2.08C21.2,21.36,20,21,20,19.48c0-.23.66-.53.62-.63a6,6,0,0,1-.35-3.1C18.71,16.62,19.24,18.11,19.14,19.41Z"/><path class="cls-2" d="M26.47,22.22c-1.25-1.56-2.87.09-3.77-1.91,1.31.46.53-.35,3-.78-.06.56-.29,1.4-.09,1.52,2.43,1.4,1.17,4.49,3,6.39l-1,.23a9,9,0,0,0-.93-3.07C24.91,23.47,27.55,23.57,26.47,22.22Z"/><path class="cls-2" d="M21.15,13.31c-1.82,1.47-1.77-.4-3.15-.18l.75,1.5c1.28-1.66,2.58.61,3.57-.21C23.12,13.76,21.38,13.12,21.15,13.31Z"/><path class="cls-2" d="M22.63,9.29c0-.28-1-.4-1.23-.81-1-2.16-.33-2.76.74-4.43a1,1,0,0,0-1.33.49.84.84,0,0,0-.08.27C20.52,6.07,21.32,6,20,7.25c-.38.37,1.33,1.34,1.65,2.18.62,1.61,1.95,2.09,2.79,3.51.29.49,1.27-.17,1.19-.63C25.35,10.62,22.81,12.87,22.63,9.29Z"/><path class="cls-2" d="M23,46c-.41.28.31.92.89,1.18.65-1.5,3.21-.43,3.24-2.14,0-.63-.94-1.18-1-2.08C24.74,44,24.56,44.93,23,46Z"/><path class="cls-2" d="M29.25,13.5c.75-1.64-1.22-1-1.51-1.83C26.67,13.58,29.61,12.17,29.25,13.5Z"/><path class="cls-2" d="M31.09,12.71,32.6,12c.24.5.75,1.11.6,1.45-1,2.15.31,4.38,1,6.37a1.59,1.59,0,0,1,2.13.72l0,.09c.92,1.8,2.85,4.58,3,6.69-.55-.11-1.41-.11-1.48-.37C37,23.74,34.33,18.8,30.75,18c-.12,0-.21-.62-.11-.93.28-.85,1.47-.86,1.75-1.42C32.93,14.58,31.79,13.62,31.09,12.71Z"/><path class="cls-2" d="M29.37,22.12c.12-.49-.3-1.11.24-1.64.88,2.17.92,4.64,3.28,6.27-.95.67-1.59-.12-2.32-.49C31.71,24.5,28.9,23.94,29.37,22.12Z"/><path class="cls-2" d="M33.81,7.09c-.59-1.15,1.46-2.89,2.13-2.73a2,2,0,0,1,1.7,2.26,2.19,2.19,0,0,1-.14.5C40.57,7,44.3,3.85,41.81,1.3,41.28.76,40,1.47,39,1.87A2.74,2.74,0,0,1,41.25,5a2.44,2.44,0,0,1-.14.53A2.16,2.16,0,0,1,39,6.4c-2-.15-1.12-2-2.28-3a2.33,2.33,0,0,0-1.46-.69c-.87.07-1.55.89-2.32,1.27-.31.15-1.1-.25-1.34-.67a1.53,1.53,0,0,1,.49-2.11l.17-.09C31,.85,30.79,2,30.92,2.57c.32,1.37,2.83,1.19,2.77,3,0,1-.71,1.86-2.18,2.25,3.29-.7,2.51,2.94,4.86,3.74,1.49.51.78-.81.64-1.37C36.63,8.8,34.48,8.4,33.81,7.09Z"/><path class="cls-2" d="M38.76,16.33a7.7,7.7,0,0,1-1.51-.71c1.21.85,0,2.11,2.14,3.21.5.27.3,1.51-.64,2l.75.75c-.34-1.84.4-3.52.75-5.25A6.19,6.19,0,0,1,38.76,16.33Z"/><path class="cls-2" d="M44.17,19.62a4,4,0,0,0-.67-1.5c-.25.25-.7.6-.65.7a5.86,5.86,0,0,1,.65,3.05A7.69,7.69,0,0,0,44.17,19.62Z"/><path class="cls-2" d="M43.12,25.33c-1.27-.32-1.38.83-1.38,1.48s.82,1.14,1.29.66,0-1.7,2.34-1.41C44.62,25.81,43.91,25.53,43.12,25.33Z"/><path class="cls-2" d="M47.12,24.87c-.7-.8-1-3-2-2S46.24,24.24,47.12,24.87Z"/><path class="cls-2" d="M47.08,4.91c-.22-.94-.5-2.77-2-2.14-.18.07-.06.85-.06,1.36,1.27-.07,2.73.32,2.83,2.26,0,.22-1.11.42-1.18.77-.15.69-1.08,1.47,1.35,2.22C47,8,47.44,6.41,47.08,4.91Z"/><path class="cls-2" d="M.38,44.62C.27,42.18.2,43-2.25,42.19c.5.25,2,1,2.1,1.32.24.78-.09,1.14.32,1.84-.17.74-1.48.74-.79,1.77,1,1.53.21,3.75,2.13,4.53.43.18.24-.47.74-.47C2.25,49.12.47,46.84.38,44.62Z"/><path class="cls-2" d="M48.54,19.84c.31,3.9-.55,6,3.58,4.51.94-1.31-1.81-.21-2.11-.82-.15-.31,1.68-1.05,1.55-1.43s-2.11-.39-2.35-.8c-.43-.75.25-1.5.66-2.2C49.37,19.35,48.53,19.62,48.54,19.84Z"/><path class="cls-2" d="M46.88,15.37c-1.29.19-1.34-.85-1.41-1.54,0-.23.61-.58.55-.69-.73-1.55-2.4-.54-3.65-.8.5,0,1.21-.16,1.38.08,1,1.38,2.83,3.57.87,5.17,1-1.23,3.15-.41,3.75-2.25A9.27,9.27,0,0,0,46.88,15.37Z"/><path class="cls-2" d="M43.3,8.35c-1.53-.07-3.27-.57-4.87-.19a3.5,3.5,0,0,0,1.31.75c.5,0,.52-.75.89-.62s.52,1.2.8,1.21c1.59.09,3,.78,4.49.91-.25-.5-.39-1.2-.8-1.4A4.26,4.26,0,0,0,43.3,8.35Z"/><path class="cls-2" d="M50.25,12c-.21-.45-1,.14-1.33.67,1.36.91-.14,3.23,1.54,3.57.62.12,1.33-.72,2.21-.57C52,14,51,13.68,50.25,12Z"/><path class="cls-2" d="M21.5,31.27c-1.29.19-1.34-.85-1.41-1.53,0-.22.61-.58.56-.69-.73-1.55-2.4-.54-3.65-.8.5,0,1.21-.16,1.38.08.95,1.38,2.83,3.57.87,5.17,1-1.23,3.15-.41,3.75-2.25A10.73,10.73,0,0,0,21.5,31.27Z"/><path class="cls-2" d="M16.5,23.25c.52,1.46,1.83,1.35,3,1.5C18.77,23.71,17.6,23.54,16.5,23.25Z"/><path class="cls-2" d="M2.39,27.29c-.13-.05-.46.4-.71.65C2.49,28.36,3,30,3.76,29.27S3.19,27,2.39,27.29Z"/><path class="cls-2" d="M2.25,15c.48,1.06,1.43.7,2.25.75C4,14.82,3.14,14.84,2.25,15Z"/><path class="cls-2" d="M27.35,15.39c-.46-.46-.43-.61-.74-.72-.84-.3-1.53.3-2.23.7,2.57-.54,3.59,1.54,3,3.75.5-.25,1.33-.5,1.33-.75C28.71,17.37,27.94,16.38,27.35,15.39Z"/><path class="cls-2" d="M40.24,47.72c-.46-.46-.44-.61-.74-.72-.84-.3-1.53.3-2.23.7,2.57-.54,3.59,1.54,3,3.75.5-.25,1.33-.5,1.33-.75C41.6,49.7,40.83,48.7,40.24,47.72Z"/><path class="cls-2" d="M15.75,14.25A3.28,3.28,0,0,1,15,16.5a1,1,0,0,0,1.32-.5.79.79,0,0,0,.08-.26A3.56,3.56,0,0,0,15.75,14.25Z"/><path class="cls-2" d="M11.44,52.69a3.28,3.28,0,0,1-.75,2.25,1,1,0,0,0,1.32-.5.79.79,0,0,0,.08-.26A3.56,3.56,0,0,0,11.44,52.69Z"/><path class="cls-2" d="M-1.5,16.69c.5,1.46,1.83,1.31,3,1.5C.77,17.15-.4,17-1.5,16.69Z"/><path class="cls-2" d="M2.25,52.87c-1.79.24-.25,1.59-.75,2.25C3.69,55,.93,53.27,2.25,52.87Z"/><path class="cls-2" d="M54.6,31.71c-.14-.87-1.78-1.1-1.84-1.55-.21-1.85-.9-2.23-1.77-3.72-.25.25-.67.5-.67.75,0,1,1.47,1.57,1.77,2.39.88,2.45.71,6.23,1.27,7.17.17-.09,1.36,1.25,1.75,1.62Z"/><path class="cls-2" d="M13.6,51.8c1.65,1.2,2.27,4.91,4.15,5.7-1.52-1.15-1.67-4.89-2.88-6.19-2.32-2.49-5.58-3.82-7.29-6.92-.62-1.12.7-2.71-.83-3.71-.26,2.43-.23,5,1.66,6.56S11.61,50.31,13.6,51.8Z"/><path class="cls-2" d="M34,52.74c-.7-.8-1-3-2-2S33.12,52.11,34,52.74Z"/><path class="cls-2" d="M36.5,52.25c-.44-.49-1.18.08-1.32.68-.23,1-1.2,2.61-.08,3a3.77,3.77,0,0,1,3-.75C35.52,55.2,37.22,53,36.5,52.25Z"/><path class="cls-2" d="M44,51.55c.16-.3.75.1,1,.45-1.06.61.11,2.17-1.2,2.39-.48.08-1-.48-1.73-.38C42.65,52.91,43.36,52.68,44,51.55Z"/><path class="cls-2" d="M20.75,41c.52,1.46,1.83,1.35,3,1.5C23,41.46,21.85,41.29,20.75,41Z"/><path class="cls-2" d="M51,38.25c.48,1.06,1.43.7,2.25.75C52.73,38.07,51.89,38.09,51,38.25Z"/><path class="cls-2" d="M55.5,3.37c-.82,0-2.15-.29-2.06.73s1,2,.46,3c-.21.41-.9.55-1.4.8-.81-2.28-3.32-3.35-3.8-6-.14-.77-.51-2.11-1.28-1.34s1.1,1,1.12,1.34c.16,2.92,1.88,4.95,3.78,6.91.38.39,0,1.65,1,2,.83.31,1.72-.69,2.13-.5L55.34,10a3.66,3.66,0,0,1-1.84-2.2c-.17-.56,1.14-1.27,2-1.32Z"/><path class="cls-2" d="M26.75,47.5A3.28,3.28,0,0,1,26,49.75a1,1,0,0,0,1.32-.5A.73.73,0,0,0,27.4,49,3.6,3.6,0,0,0,26.75,47.5Z"/><path class="cls-2" d="M24.23,31.09c1.68,0,.12-1.14.52-1.59Z"/><path class="cls-2" d="M50.25,32.25a3.28,3.28,0,0,1-.75,2.25,1,1,0,0,0,1.32-.5.79.79,0,0,0,.08-.26A3.56,3.56,0,0,0,50.25,32.25Z"/><path class="cls-2" d="M43.75,46.5a3.33,3.33,0,0,0,1.06,2.12,1,1,0,0,1-1.38-.31,1.28,1.28,0,0,1-.11-.24A3.58,3.58,0,0,1,43.75,46.5Z"/><path class="cls-2" d="M9.26,51.08C10,49.44,8,50,7.75,49.25,6.67,51.16,9.62,49.75,9.26,51.08Z"/><path class="cls-2" d="M35.5,45c-1.59-.17-.68.91-.75,1.5Z"/><path class="cls-2" d="M26,3.65c1.26.34.89,1.31.69,2-.07.22-.79.29-.78.42.05,1.71,2,1.45,3,2.18-.46-.2-1.18-.33-1.24-.62-.32-1.64-1.19-4.4,1.25-5.09-1.37.75-3.06-.87-4.33.58A10.44,10.44,0,0,0,26,3.65Z"/><path class="cls-2" d="M11.25,29.5c-1.59-.17-.68.91-.75,1.5Z"/><path class="cls-2" d="M13.5,35c.48,1.06,1.43.7,2.25.75C15.23,34.82,14.39,34.84,13.5,35Z"/><path class="cls-2" d="M35,23.5c-1.59-.17-.68.91-.75,1.5Z"/><path class="cls-2" d="M30.48,9c.12.59-.28,1-.6,1.51.58.14,1.07-.13,1.12-.51S30.68,9.33,30.48,9Z"/><path class="cls-2" d="M25.07,8.74c-.45-4.31-.57,0-.82,0C25,9,26,9,25.75,10.25A4.9,4.9,0,0,1,25.07,8.74Z"/><path class="cls-2" d="M9.59,14.75c2.51.76.26,1.37,3.16,2,1.21-.64,1.16-2.27,1-3.65,0-.32-.65-1.27-.75-1.76L12.57,13c-.14.55-.07,1.84-.24,1.9A3.86,3.86,0,0,1,9.59,14.75Z"/><path class="cls-2" d="M10.34,8.27c.35-1.27,1.41-.79,2-.47a.8.8,0,0,1-.06,1.45c-.65.18-1.49-.83-2.38,1.34A17.22,17.22,0,0,1,10.34,8.27Z"/><path class="cls-2" d="M-5.25,48.94a1,1,0,0,0-.48-1.33A.92.92,0,0,0-6,47.53c-.86-.13-2-.42-2-.86a3.33,3.33,0,0,0-2.47-3,14.92,14.92,0,0,0,5.14,5.39c.25.17,0,.94.15,1.35.66,1.33,2.65-.12,2.84,2.29,0,.23-.41.49-.66.74,2.11-.6,1.86,2.13,3.75,2.25v-1.5a3.61,3.61,0,0,1-2.26-.74C-3.82,52.31-1.42,49.4-5.25,48.94Z"/><path class="cls-2" d="M.6,31.71c-.14-.87-1.78-1.1-1.84-1.55-.21-1.85-.9-2.23-1.77-3.72-.25.25-.67.5-.67.75,0,1,1.47,1.57,1.77,2.39C-1,32-1.19,35.81-.62,36.75-.45,36.66.74,38,1.13,38.37Z"/><path class="cls-2" d="M1.5,3.37c-.82,0-2.15-.29-2.06.73s1,2,.46,3c-.21.41-.9.55-1.4.8-.81-2.28-3.32-3.35-3.8-6C-5.44,1.13-5.81-.21-6.58.56s1.1,1,1.12,1.34c.16,2.92,1.88,4.95,3.78,6.91.38.39-.05,1.65,1,2,.83.31,1.72-.69,2.13-.5L1.34,10A3.66,3.66,0,0,1-.5,7.8c-.17-.56,1.14-1.27,2-1.32Z"/></pattern></defs><title>Монтажная область 1</title><g id="Layer_5" data-name="Layer 5"><rect class="cls-1" x="30.69" y="167.49" width="192.1" height="87.63"/><polygon class="cls-12" points="249.84 248.77 0 245.85 0 209.7 249.84 213.27 249.84 248.77"/><polygon class="cls-12" points="75.17 200.37 75.17 0 56.75 29.48 56.75 199.85 75.17 200.37"/><polygon class="cls-13" points="75.17 0 170.02 23.5 168.29 202.8 75.17 200.37 75.17 0"/><polygon class="cls-14" points="75.17 0 170.02 23.5 168.29 202.8 75.17 200.37 75.17 0"/><polygon class="cls-15" points="127.43 161.15 161.65 163.69 161.65 202.8 127.43 201.77 127.43 161.15"/><ellipse class="cls-16" cx="144.22" cy="183.6" rx="12.99" ry="15.18"/><ellipse class="cls-17" cx="144.22" cy="183.6" rx="12.99" ry="15.18"/><rect class="cls-18" x="125.07" y="158.31" width="2.35" height="43.46"/><rect class="cls-18" x="161.65" y="161.84" width="2.14" height="40.96"/><rect class="cls-18" x="122.63" y="162.43" width="2.45" height="39.34"/><rect class="cls-18" x="120.18" y="167.66" width="2.45" height="34.11"/><rect class="cls-18" x="117.74" y="172.24" width="2.45" height="29.53"/><rect class="cls-18" x="115.29" y="176.89" width="2.45" height="24.88"/><rect class="cls-18" x="112.84" y="183.27" width="2.45" height="18.5"/><rect class="cls-18" x="110.4" y="190.66" width="2.45" height="11.11"/><rect class="cls-18" x="107.95" y="196.21" width="2.45" height="5.56"/><polygon class="cls-16" points="0 225.01 249.64 228.95 249.64 235.68 0 233.46 0 225.01"/><polygon class="cls-19" points="249.84 256.34 0 255.25 0 245.85 249.84 248.77 249.84 256.34"/><polygon class="cls-20" points="38.05 246.12 29.03 246.05 29.03 217.95 38.02 218.11 38.05 246.12"/><polygon class="cls-20" points="75.17 246.39 66.27 246.33 66.27 218.6 75.17 218.76 75.17 246.39"/><polygon class="cls-20" points="112.29 246.67 103.2 246.6 103.51 219.25 112.29 219.39 112.29 246.67"/><rect class="cls-20" x="140.75" y="219.86" width="8.66" height="26.97"/><rect class="cls-20" x="177.99" y="220.34" width="8.53" height="26.5"/><rect class="cls-20" x="215.23" y="220.81" width="8.41" height="26.02"/><polygon class="cls-19" points="0 217.48 0 197.58 249.74 204.96 249.74 222.85 0 217.48"/></g></svg>