<svg id="Слой_1" data-name="Слой 1" xmlns="http://www.w3.org/2000/svg" xmlns:xlink="http://www.w3.org/1999/xlink" viewBox="0 0 186.62 87.08"><defs><style>.cls-1,.cls-10,.cls-11,.cls-13,.cls-2,.cls-3,.cls-4,.cls-5,.cls-6,.cls-7,.cls-8,.cls-9{fill:none;}.cls-10,.cls-11,.cls-2,.cls-3,.cls-4,.cls-5,.cls-6,.cls-7,.cls-8,.cls-9{stroke:#8e8e8e;stroke-linecap:round;stroke-dasharray:0 6.5;}.cls-2{stroke-width:3.5px;}.cls-3{stroke-width:3.25px;}.cls-4{stroke-width:3px;}.cls-5{stroke-width:2.75px;}.cls-6{stroke-width:2.5px;}.cls-7{stroke-width:2.25px;}.cls-8{stroke-width:2px;}.cls-9{stroke-width:1.75px;}.cls-10{stroke-width:1.5px;}.cls-11{stroke-width:1.25px;}.cls-12{fill:url(#Безымянный_градиент);}.cls-13{stroke:#7c706c;stroke-linecap:square;stroke-linejoin:bevel;}.cls-14{fill:#fff;}.cls-15{fill:url(#Undulating_Fine_Dots);}.cls-16{fill:url(#Безымянный_градиент_2);}.cls-17{fill:#efefef;}.cls-18{fill:url(#Безымянный_градиент_3);}.cls-19{fill:#666;}.cls-20{fill:url(#Безымянный_градиент_4);}</style><linearGradient id="Безымянный_градиент" x1="240.35" y1="-286.55" x2="421.05" y2="-286.55" gradientTransform="matrix(1, 0, 0, -1, -236.93, -223.74)" gradientUnits="userSpaceOnUse"><stop offset="0.03" stop-color="#231f20"/><stop offset="1" stop-color="#fff"/></linearGradient><pattern id="Undulating_Fine_Dots" data-name="Undulating Fine Dots" width="83" height="65" patternTransform="matrix(0.98, 0, 0, -0.98, -226.69, 881.04)" patternUnits="userSpaceOnUse" viewBox="0 0 83 65"><rect class="cls-1" width="83" height="65"/><rect class="cls-1" width="83" height="65"/><line class="cls-2" x1="83" x2="83" y2="-65.5"/><line class="cls-2" y2="-65.5"/><line class="cls-3" x1="4.61" y1="3.25" x2="4.61" y2="-65.5"/><line class="cls-4" x1="9.22" x2="9.22" y2="-65.5"/><line class="cls-5" x1="13.83" y1="3.25" x2="13.83" y2="-65.5"/><line class="cls-6" x1="18.45" x2="18.45" y2="-65.5"/><line class="cls-7" x1="23.06" y1="3.25" x2="23.06" y2="-65.5"/><line class="cls-8" x1="27.67" x2="27.67" y2="-65.5"/><line class="cls-9" x1="32.28" y1="3.25" x2="32.28" y2="-65.5"/><line class="cls-10" x1="36.89" x2="36.89" y2="-65.5"/><line class="cls-11" x1="41.5" y1="3.25" x2="41.5" y2="-65.5"/><line class="cls-2" x1="83" x2="83" y2="-65.5"/><line class="cls-3" x1="78.39" y1="3.25" x2="78.39" y2="-65.5"/><line class="cls-4" x1="73.78" x2="73.78" y2="-65.5"/><line class="cls-5" x1="69.17" y1="3.25" x2="69.17" y2="-65.5"/><line class="cls-6" x1="64.55" x2="64.55" y2="-65.5"/><line class="cls-7" x1="59.94" y1="3.25" x2="59.94" y2="-65.5"/><line class="cls-8" x1="55.33" x2="55.33" y2="-65.5"/><line class="cls-9" x1="50.72" y1="3.25" x2="50.72" y2="-65.5"/><line class="cls-10" x1="46.11" x2="46.11" y2="-65.5"/><line class="cls-2" y2="-65.5"/><line class="cls-2" x1="83" y1="65" x2="83" y2="-0.5"/><line class="cls-2" y1="65" y2="-0.5"/><line class="cls-3" x1="4.61" y1="68.25" x2="4.61" y2="-0.5"/><line class="cls-4" x1="9.22" y1="65" x2="9.22" y2="-0.5"/><line class="cls-5" x1="13.83" y1="68.25" x2="13.83" y2="-0.5"/><line class="cls-6" x1="18.45" y1="65" x2="18.45" y2="-0.5"/><line class="cls-7" x1="23.06" y1="68.25" x2="23.06" y2="-0.5"/><line class="cls-8" x1="27.67" y1="65" x2="27.67" y2="-0.5"/><line class="cls-9" x1="32.28" y1="68.25" x2="32.28" y2="-0.5"/><line class="cls-10" x1="36.89" y1="65" x2="36.89" y2="-0.5"/><line class="cls-11" x1="41.5" y1="68.25" x2="41.5" y2="-0.5"/><line class="cls-2" x1="83" y1="65" x2="83" y2="-0.5"/><line class="cls-3" x1="78.39" y1="68.25" x2="78.39" y2="-0.5"/><line class="cls-4" x1="73.78" y1="65" x2="73.78" y2="-0.5"/><line class="cls-5" x1="69.17" y1="68.25" x2="69.17" y2="-0.5"/><line class="cls-6" x1="64.55" y1="65" x2="64.55" y2="-0.5"/><line class="cls-7" x1="59.94" y1="68.25" x2="59.94" y2="-0.5"/><line class="cls-8" x1="55.33" y1="65" x2="55.33" y2="-0.5"/><line class="cls-9" x1="50.72" y1="68.25" x2="50.72" y2="-0.5"/><line class="cls-10" x1="46.11" y1="65" x2="46.11" y2="-0.5"/><line class="cls-2" y1="65" y2="-0.5"/><line class="cls-2" x1="83" y1="130" x2="83" y2="64.5"/><line class="cls-2" y1="130" y2="64.5"/><line class="cls-3" x1="4.61" y1="133.25" x2="4.61" y2="64.5"/><line class="cls-4" x1="9.22" y1="130" x2="9.22" y2="64.5"/><line class="cls-5" x1="13.83" y1="133.25" x2="13.83" y2="64.5"/><line class="cls-6" x1="18.45" y1="130" x2="18.45" y2="64.5"/><line class="cls-7" x1="23.06" y1="133.25" x2="23.06" y2="64.5"/><line class="cls-8" x1="27.67" y1="130" x2="27.67" y2="64.5"/><line class="cls-9" x1="32.28" y1="133.25" x2="32.28" y2="64.5"/><line class="cls-10" x1="36.89" y1="130" x2="36.89" y2="64.5"/><line class="cls-11" x1="41.5" y1="133.25" x2="41.5" y2="64.5"/><line class="cls-2" x1="83" y1="130" x2="83" y2="64.5"/><line class="cls-3" x1="78.39" y1="133.25" x2="78.39" y2="64.5"/><line class="cls-4" x1="73.78" y1="130" x2="73.78" y2="64.5"/><line class="cls-5" x1="69.17" y1="133.25" x2="69.17" y2="64.5"/><line class="cls-6" x1="64.55" y1="130" x2="64.55" y2="64.5"/><line class="cls-7" x1="59.94" y1="133.25" x2="59.94" y2="64.5"/><line class="cls-8" x1="55.33" y1="130" x2="55.33" y2="64.5"/><line class="cls-9" x1="50.72" y1="133.25" x2="50.72" y2="64.5"/><line class="cls-10" x1="46.11" y1="130" x2="46.11" y2="64.5"/><line class="cls-2" y1="130" y2="64.5"/></pattern><linearGradient id="Безымянный_градиент_2" x1="319.5" y1="-271.11" x2="343.93" y2="-228.78" xlink:href="#Безымянный_градиент"/><linearGradient id="Безымянный_градиент_3" x1="330.72" y1="-223.74" x2="330.72" y2="-287.59" gradientTransform="matrix(1, 0, 0, -1, -236.93, -223.74)" gradientUnits="userSpaceOnUse"><stop offset="0" stop-color="#fff"/><stop offset="1"/></linearGradient><linearGradient id="Безымянный_градиент_4" x1="237.91" y1="-276.16" x2="423.55" y2="-276.16" xlink:href="#Безымянный_градиент_3"/></defs><title>Монтажная область 3</title><g id="Layer_5" data-name="Layer 5"><rect class="cls-1" x="0.57" y="-36.32" width="192.1" height="87.63"/><path class="cls-12" d="M3.42,38.86s2.29,6.94,13.52,12.8c5.81,3,13.48,5,25.52,7.09a288.6,288.6,0,0,0,72,4.06c11-.65,29.07-3.91,45.55-7.94a43.83,43.83,0,0,0,24.11-15.41L177.88,64.9S151,86.76,96.54,86.76C33.07,86.76,9.2,65,9.2,65Z"/><path class="cls-13" d="M3.44,39.21S5.73,46.15,17,52c5.81,3,13.48,5,25.52,7.09a288.6,288.6,0,0,0,72,4.06c11-.65,29.07-3.91,45.55-7.94a43.83,43.83,0,0,0,24.11-15.41L177.9,65.25S151,87.11,96.54,87.11C33.07,87.11,9.2,65.37,9.2,65.37Z"/><line class="cls-13" x1="16.95" y1="52.01" x2="20.31" y2="72.72"/><line class="cls-13" x1="33.13" y1="57.28" x2="35.21" y2="78.45"/><line class="cls-13" x1="42.47" y1="59.1" x2="44.04" y2="81.05"/><line class="cls-13" x1="58.96" y1="61.6" x2="60.4" y2="84.44"/><line class="cls-13" x1="67.37" y1="62.36" x2="68.18" y2="85.37"/><line class="cls-13" x1="76.07" y1="63.2" x2="77" y2="86.08"/><line class="cls-13" x1="84.15" y1="63.66" x2="84.15" y2="86.82"/><line class="cls-13" x1="92.54" y1="63.66" x2="92.54" y2="87.08"/><line class="cls-13" x1="100.52" y1="63.51" x2="100.52" y2="86.82"/><line class="cls-13" x1="108.94" y1="63.51" x2="108.94" y2="86.72"/><line class="cls-13" x1="117.18" y1="62.75" x2="117.06" y2="86.02"/><line class="cls-13" x1="125.62" y1="61.97" x2="124.09" y2="85.12"/><line class="cls-13" x1="134.67" y1="60.54" x2="132.82" y2="83.57"/><line class="cls-13" x1="142.83" y1="59.02" x2="141.15" y2="81.63"/><line class="cls-13" x1="151.14" y1="57.28" x2="148.53" y2="79.47"/><line class="cls-13" x1="160.01" y1="55.22" x2="156.84" y2="76.06"/><line class="cls-13" x1="168.42" y1="52.24" x2="165.41" y2="72.72"/><line class="cls-13" x1="177.04" y1="46.9" x2="173.23" y2="68.43"/><line class="cls-13" x1="24.85" y1="55.22" x2="27.22" y2="75.5"/><line class="cls-13" x1="50.4" y1="60.41" x2="52.1" y2="82.93"/><line class="cls-13" x1="8.73" y1="46.34" x2="13.4" y2="68.43"/><path class="cls-14" d="M17.94,35.16a.49.49,0,0,1-.47-.34L12,17.29A.49.49,0,0,1,13,17l5.44,17.53a.5.5,0,0,1-.32.61Z"/><path class="cls-14" d="M26.1,31.09a.48.48,0,0,1-.47-.36L20.28,11.35a.49.49,0,0,1,.34-.61.51.51,0,0,1,.61.35h0l5.31,19.38a.5.5,0,0,1-.34.6Z"/><path class="cls-14" d="M33.26,28.56a.49.49,0,0,1-.48-.38L28.05,8.65a.48.48,0,0,1,.36-.59.5.5,0,0,1,.59.36L33.73,28a.49.49,0,0,1-.36.59Z"/><path class="cls-14" d="M41.75,26.59a.48.48,0,0,1-.48-.39L37.16,6.52a.51.51,0,1,1,1-.2L42.27,26a.5.5,0,0,1-.38.58h-.14Z"/><path class="cls-14" d="M49.48,25.23a.48.48,0,0,1-.48-.41L45.54,5a.48.48,0,0,1,.39-.57h0a.48.48,0,0,1,.56.38v0L50,24.65a.5.5,0,0,1-.4.57h-.12Z"/><path class="cls-14" d="M57.25,24a.49.49,0,0,1-.49-.42l-2.87-20A.5.5,0,0,1,54.32,3a.51.51,0,0,1,.57.43h0l2.87,20a.5.5,0,0,1-.41.56h-.1Z"/><path class="cls-14" d="M65.47,23.18a.48.48,0,0,1-.49-.44L62.73,2.6a.5.5,0,0,1,1-.11L66,22.63a.49.49,0,0,1-.43.54Z"/><path class="cls-14" d="M73.13,22.56a.49.49,0,0,1-.49-.45L71,1.82a.49.49,0,0,1,.46-.54.51.51,0,0,1,.54.46L73.64,22a.49.49,0,0,1-.45.53h-.06Z"/><path class="cls-14" d="M81.29,22.61a.49.49,0,0,1-.49-.47L79.8,1.7a.48.48,0,0,1,.47-.51h0a.47.47,0,0,1,.5.43.06.06,0,0,1,0,0l1,20.44a.49.49,0,0,1-.47.51h0Z"/><path class="cls-14" d="M88.7,22.21a.48.48,0,0,1-.49-.48l-.4-20.6a.49.49,0,0,1,.48-.5h0a.5.5,0,0,1,.49.48l.4,20.6a.5.5,0,0,1-.48.5Z"/><path class="cls-14" d="M96.54,22.46h0a.49.49,0,0,1-.49-.49h0l.22-20.75A.45.45,0,0,1,96.7.73h.07a.49.49,0,0,1,.49.49h0L97,22a.49.49,0,0,1-.5.48Z"/><path class="cls-14" d="M175.75,32.19h-.1a.48.48,0,0,1-.38-.58h0l2.34-11.08a.5.5,0,0,1,.6-.4.52.52,0,0,1,.4.6l-2.34,11.08A.5.5,0,0,1,175.75,32.19Z"/><path class="cls-14" d="M166.91,31.09h-.13a.49.49,0,0,1-.34-.6l4.65-16.86a.49.49,0,0,1,.6-.35.51.51,0,0,1,.35.61h0l-4.65,16.86A.49.49,0,0,1,166.91,31.09Z"/><path class="cls-14" d="M159.75,28.56h-.12a.48.48,0,0,1-.36-.59l4.37-18a.49.49,0,0,1,.61-.38.51.51,0,0,1,.39.61l-4.37,18A.51.51,0,0,1,159.75,28.56Z"/><path class="cls-14" d="M151.26,26.59h-.1a.48.48,0,0,1-.38-.58h0l3.76-18a.49.49,0,0,1,.58-.38h0a.5.5,0,0,1,.38.58h0l-3.76,18A.5.5,0,0,1,151.26,26.59Z"/><path class="cls-14" d="M143.54,25.23h-.09a.49.49,0,0,1-.4-.57h0l3.49-19.84a.5.5,0,0,1,.58-.42.52.52,0,0,1,.42.59l-3.49,19.83A.49.49,0,0,1,143.54,25.23Z"/><path class="cls-14" d="M135.76,24h-.07a.5.5,0,0,1-.43-.55h0l2.87-20a.49.49,0,0,1,.57-.43.51.51,0,0,1,.43.57h0l-2.87,20A.5.5,0,0,1,135.76,24Z"/><path class="cls-14" d="M127.54,23.18h0a.49.49,0,0,1-.43-.54L129.36,2.5a.5.5,0,0,1,.55-.45.51.51,0,0,1,.45.56l-2.25,20.14a.49.49,0,0,1-.54.43Z"/><path class="cls-14" d="M119.89,22.56h0a.49.49,0,0,1-.45-.53h0l1.63-20.29a.48.48,0,0,1,.52-.45h0a.49.49,0,0,1,.45.53h0l-1.63,20.29a.5.5,0,0,1-.53.45Z"/><path class="cls-14" d="M111.73,22.61h0a.49.49,0,0,1-.47-.51h0l1-20.44a.47.47,0,0,1,.48-.47h0a.49.49,0,0,1,.47.51h0l-1,20.44a.49.49,0,0,1-.51.47Z"/><path class="cls-14" d="M104.31,22.21h0a.49.49,0,0,1-.48-.5h0l.39-20.6a.48.48,0,0,1,.49-.48h0a.5.5,0,0,1,.48.5h0l-.39,20.6A.5.5,0,0,1,104.31,22.21Z"/><path class="cls-14" d="M163.2,21.66C149.5,14.54,127.48,8.14,92.54,8.1S36.08,14.49,23.12,21.66C8.54,29.72,4.64,38.66,4,40.43c-.07.19-.1.3-.1.3,0,12.33,40.43,22.32,90.3,22.32,35.37,0,66-5,80.81-12.35,6.07-3,9.49-6.39,9.49-10C184.54,40.73,180.45,30.62,163.2,21.66Z"/><path class="cls-15" d="M163.2,21.66C149.5,14.54,127.48,8.14,92.54,8.1S36.08,14.49,23.12,21.66C8.54,29.72,4.64,38.66,4,40.43c-.07.19-.1.3-.1.3,0,12.33,40.43,22.32,90.3,22.32,35.37,0,66-5,80.81-12.35,6.07-3,9.49-6.39,9.49-10C184.54,40.73,180.45,30.62,163.2,21.66Z"/><path class="cls-16" d="M134.89,26.15C137.37,37,115.29,38,94.2,38S50.88,35.39,53.51,25.89c2.86-10.32,13-13.64,40.69-13.64C118.4,12.27,132.3,14.76,134.89,26.15Z"/><path class="cls-17" d="M4.13,40.78l-.84-.63,1.88.67C4.82,40.79,4.47,40.78,4.13,40.78Zm0,0a8.8,8.8,0,0,1-.83-.65l1.88.67Z"/><path class="cls-17" d="M4.13,40.78l.07.55a5.16,5.16,0,0,0,.1.67l.3.88a11.21,11.21,0,0,0,3.93,4.54,37.69,37.69,0,0,0,8.36,4.39,96.12,96.12,0,0,0,11.74,3.66c4.38,1.1,9.18,2.07,14.29,2.89s10.53,1.49,16.15,2.08a341.86,341.86,0,0,0,35.35,1.65c6.06,0,12.06-.1,18-.39s11.76-.67,17.37-1.27,11-1.23,16.15-2.08,9.92-1.76,14.29-2.89A105.74,105.74,0,0,0,172,51.8a37.27,37.27,0,0,0,8.36-4.39,11.36,11.36,0,0,0,3.93-4.54,6.45,6.45,0,0,0,.41-1.55v0a6.63,6.63,0,0,1-.34,1.59,11.35,11.35,0,0,1-3.8,4.81,29,29,0,0,1-3.67,2.46c-1.38.81-3,1.52-4.65,2.31a89.66,89.66,0,0,1-11.68,4.06c-4.38,1.24-9.21,2.27-14.33,3.24S135.64,61.55,130,62.17s-11.51,1.07-17.46,1.41-12,.47-18.07.52a340.28,340.28,0,0,1-35.55-1.93,200.27,200.27,0,0,1-30.55-5.61c-8.77-2.39-15.86-5.5-20-8.83a11.12,11.12,0,0,1-3.79-4.81L4.26,42a5.73,5.73,0,0,0-.07-.68Z"/><path class="cls-17" d="M4.23,40.48l.52.23c.21.1.38.2.37.24s-.18,0-.44,0l-.56-.14-.53-.23c-.22-.1-.38-.2-.37-.24s.18,0,.44,0Z"/><path class="cls-18" d="M185.12,41.06l-6.32-18.3a7.89,7.89,0,0,0,.1-1.09C178.9,8.1,135.84,0,94.21,0S9.54,8.09,9.54,21.66v.11a.49.49,0,0,0-.49.32L2.47,41.16a.48.48,0,0,0,.3.62h.16a.49.49,0,0,0,.46-.33L9.72,23.14c.53,2.2,2.22,4.25,4.87,6.13a.47.47,0,0,0-.39.34l-6,19.22a.48.48,0,0,0,.32.61h.15a.51.51,0,0,0,.47-.34l6-19.22a.53.53,0,0,0,0-.25,39.87,39.87,0,0,0,7.43,3.76.43.43,0,0,0-.21.28L17,53a.49.49,0,0,0,.34.6h.13a.49.49,0,0,0,.47-.36L23.3,33.91a.53.53,0,0,0,0-.25c2,.77,4.21,1.5,6.57,2.19a.46.46,0,0,0-.35.35L24.79,55.73a.48.48,0,0,0,.36.59h.12a.5.5,0,0,0,.48-.38l4.73-19.53a.5.5,0,0,0-.12-.44c2.44.7,5,1.35,7.79,2a.45.45,0,0,0-.14.24L33.9,57.89a.49.49,0,0,0,.38.58h.1a.49.49,0,0,0,.48-.39L39,38.4a.61.61,0,0,0,0-.27q3.3.7,6.84,1.32a.29.29,0,0,0,0,.13L42.32,59.41a.48.48,0,0,0,.39.57h.1a.49.49,0,0,0,.48-.41l3.49-19.83V39.6c2.24.38,4.55.73,6.91,1a.37.37,0,0,0-.1.22l-2.87,20a.48.48,0,0,0,.41.56h.08A.5.5,0,0,0,51.7,61l2.87-20a.49.49,0,0,0,0-.24c2.38.31,4.8.6,7.28.86h0L59.6,61.77a.49.49,0,0,0,.43.54h.06a.5.5,0,0,0,.49-.44l2.25-20.14h0c2.2.22,4.42.42,6.68.6L67.88,62.59a.48.48,0,0,0,.44.53h0a.5.5,0,0,0,.49-.45l1.63-20.26c2.36.17,4.75.32,7.15.45l-1,19.85a.48.48,0,0,0,.47.51h0a.49.49,0,0,0,.49-.47l1-19.85q3.21.16,6.45.25l-.47,20.2a.49.49,0,0,0,.48.5h0a.49.49,0,0,0,.52-.46v0l.39-20.11q3.42.09,6.85.1L93,63.24a.48.48,0,0,0,.49.48h0a.49.49,0,0,0,.49-.49h0L93.7,43.35h.5q3.15,0,6.33-.06l.38,20.06a.48.48,0,0,0,.49.48h0a.5.5,0,0,0,.48-.5h0l-.34-20.08q3.24-.07,6.46-.21l1,19.76a.49.49,0,0,0,.49.47h0a.49.49,0,0,0,.47-.51h0L109,43c2.4-.11,4.78-.24,7.16-.41l1.62,20.12a.49.49,0,0,0,.49.45h0a.49.49,0,0,0,.45-.53h0l-1.62-20.11q3.38-.24,6.68-.55L126,62a.48.48,0,0,0,.49.44h.08a.49.49,0,0,0,.43-.54l-2.23-20q3.66-.36,7.22-.8l2.87,20a.48.48,0,0,0,.48.42h.07a.5.5,0,0,0,.42-.55h0l-2.87-20q3.49-.45,6.84-1l3.46,19.65a.48.48,0,0,0,.48.41h.09a.5.5,0,0,0,.4-.57h0l-3.46-19.64c2.32-.38,4.58-.79,6.76-1.23l4,19.57a.48.48,0,0,0,.48.39h.1a.5.5,0,0,0,.38-.58h0l-4-19.59c2.64-.55,5.16-1.14,7.54-1.77L160.71,56a.49.49,0,0,0,.48.38h.11a.49.49,0,0,0,.36-.59L157,36.35c2.24-.61,4.35-1.27,6.3-2l5.23,19a.48.48,0,0,0,.47.36h.13a.5.5,0,0,0,.34-.6l-5.25-19a49.94,49.94,0,0,0,7.37-3.36l5.71,18.4a.49.49,0,0,0,.47.34h.15a.5.5,0,0,0,.32-.61l-5.78-18.62c2.92-1.8,5-3.77,5.88-5.89l5.88,17a.47.47,0,0,0,.46.33h.16a.49.49,0,0,0,.34-.6A.08.08,0,0,1,185.12,41.06Zm-32-5.72c-15.74,3.89-36.68,6-59,6-49.49,0-82.73-10.19-82.73-19.71,0-5,8.66-9.95,23.77-13.68,15.74-3.89,36.68-6,59-6,49.49,0,82.73,10.19,82.73,19.71,0,5-8.62,10-23.73,13.69Z"/><path class="cls-19" d="M55,22.69s.1-.32.33-.91a9,9,0,0,1,1.44-2.36A13.45,13.45,0,0,1,60,16.63a23.81,23.81,0,0,1,5.13-2.28,62.63,62.63,0,0,1,13.72-2.47c2.54-.21,5.16-.39,7.82-.46s5.36-.12,8.07-.12a130.16,130.16,0,0,1,15.9,1,72.82,72.82,0,0,1,7.24,1.28,45.66,45.66,0,0,1,6.34,1.89,26,26,0,0,1,5,2.5,14.73,14.73,0,0,1,3.26,2.84,9,9,0,0,1,1.42,2.37c.22.6.31.92.31.92s-.12-.32-.4-.88a9.74,9.74,0,0,0-1.6-2.17,14.23,14.23,0,0,0-3.35-2.47,29.39,29.39,0,0,0-5-2.06A68.78,68.78,0,0,0,110.48,14c-5-.49-10.35-.72-15.71-.72-2.68,0-5.37,0-8,.06s-5.24.13-7.74.29A73.39,73.39,0,0,0,65.5,15.47a26.9,26.9,0,0,0-5.09,1.84A12.75,12.75,0,0,0,57,19.71a10,10,0,0,0-1.62,2.15A4.62,4.62,0,0,0,55,22.69Z"/><path class="cls-20" d="M88.33,65.26C19.07,65.26,1.94,43,1.23,42.05a1.5,1.5,0,0,1,2.41-1.78h0c0,.06,4.45,5.81,17.63,11.36C33.48,56.78,55.91,62.81,93.4,62.22c84.95-1.3,90.19-21.24,90.24-21.44a1.51,1.51,0,0,1,1.75-1.18,1.49,1.49,0,0,1,1.21,1.7c-.15.92-4.69,22.56-93.15,23.92C91.72,65.24,90,65.26,88.33,65.26Z"/></g></svg>