<svg id="Слой_1" data-name="Слой 1" xmlns="http://www.w3.org/2000/svg" xmlns:xlink="http://www.w3.org/1999/xlink" viewBox="0 0 127.9 281.8"><defs><style>.cls-1,.cls-2,.cls-8{fill:none;}.cls-2{stroke:#83aae2;stroke-width:2px;stroke-dasharray:2 1;}.cls-3{fill:#7a9abd;}.cls-4{fill:url(#Безымянный_градиент);}.cls-5{fill:url(#SVGID_4_);}.cls-6{fill:url(#Безымянный_градиент_2);}.cls-7{fill:url(#Безымянный_градиент_3);}.cls-8{stroke:#343e7a;}.cls-10,.cls-8{stroke-miterlimit:10;}.cls-10,.cls-9{fill:#343e7a;}.cls-10{stroke:#a0a0a0;}.cls-11{opacity:0.47;}.cls-12{isolation:isolate;}</style><linearGradient id="Безымянный_градиент" x1="255.33" y1="480.31" x2="338.44" y2="480.31" gradientTransform="translate(-236.93 -363.56)" gradientUnits="userSpaceOnUse"><stop offset="0" stop-color="#78bace"/><stop offset="0.88" stop-color="#fff"/></linearGradient><pattern id="SVGID_4_" data-name="SVGID 4 " width="72" height="72" patternTransform="translate(-468.93 16147.87) scale(0.96)" patternUnits="userSpaceOnUse" viewBox="0 0 72 72"><rect class="cls-1" width="72" height="72"/><rect class="cls-1" width="72" height="72"/><rect class="cls-1" width="72" height="72"/><line class="cls-2" x1="0.5" y1="70.5" x2="72.5" y2="70.5"/><line class="cls-2" x1="0.5" y1="67.5" x2="72.5" y2="67.5"/><line class="cls-2" x1="0.5" y1="64.5" x2="72.5" y2="64.5"/><line class="cls-2" x1="0.5" y1="61.5" x2="72.5" y2="61.5"/><line class="cls-2" x1="0.5" y1="58.5" x2="72.5" y2="58.5"/><line class="cls-2" x1="0.5" y1="55.5" x2="72.5" y2="55.5"/><line class="cls-2" x1="0.5" y1="52.5" x2="72.5" y2="52.5"/><line class="cls-2" x1="0.5" y1="49.5" x2="72.5" y2="49.5"/><line class="cls-2" x1="0.5" y1="46.5" x2="72.5" y2="46.5"/><line class="cls-2" x1="0.5" y1="43.5" x2="72.5" y2="43.5"/><line class="cls-2" x1="0.5" y1="40.5" x2="72.5" y2="40.5"/><line class="cls-2" x1="0.5" y1="37.5" x2="72.5" y2="37.5"/><line class="cls-2" x1="0.5" y1="34.5" x2="72.5" y2="34.5"/><line class="cls-2" x1="0.5" y1="31.5" x2="72.5" y2="31.5"/><line class="cls-2" x1="0.5" y1="28.5" x2="72.5" y2="28.5"/><line class="cls-2" x1="0.5" y1="25.5" x2="72.5" y2="25.5"/><line class="cls-2" x1="0.5" y1="22.5" x2="72.5" y2="22.5"/><line class="cls-2" x1="0.5" y1="19.5" x2="72.5" y2="19.5"/><line class="cls-2" x1="0.5" y1="16.5" x2="72.5" y2="16.5"/><line class="cls-2" x1="0.5" y1="13.5" x2="72.5" y2="13.5"/><line class="cls-2" x1="0.5" y1="10.5" x2="72.5" y2="10.5"/><line class="cls-2" x1="0.5" y1="7.5" x2="72.5" y2="7.5"/><line class="cls-2" x1="0.5" y1="4.5" x2="72.5" y2="4.5"/><line class="cls-2" x1="0.5" y1="1.5" x2="72.5" y2="1.5"/><line class="cls-2" x1="-71.5" y1="70.5" x2="0.5" y2="70.5"/><line class="cls-2" x1="-71.5" y1="67.5" x2="0.5" y2="67.5"/><line class="cls-2" x1="-71.5" y1="64.5" x2="0.5" y2="64.5"/><line class="cls-2" x1="-71.5" y1="61.5" x2="0.5" y2="61.5"/><line class="cls-2" x1="-71.5" y1="58.5" x2="0.5" y2="58.5"/><line class="cls-2" x1="-71.5" y1="55.5" x2="0.5" y2="55.5"/><line class="cls-2" x1="-71.5" y1="52.5" x2="0.5" y2="52.5"/><line class="cls-2" x1="-71.5" y1="49.5" x2="0.5" y2="49.5"/><line class="cls-2" x1="-71.5" y1="46.5" x2="0.5" y2="46.5"/><line class="cls-2" x1="-71.5" y1="43.5" x2="0.5" y2="43.5"/><line class="cls-2" x1="-71.5" y1="40.5" x2="0.5" y2="40.5"/><line class="cls-2" x1="-71.5" y1="37.5" x2="0.5" y2="37.5"/><line class="cls-2" x1="-71.5" y1="34.5" x2="0.5" y2="34.5"/><line class="cls-2" x1="-71.5" y1="31.5" x2="0.5" y2="31.5"/><line class="cls-2" x1="-71.5" y1="28.5" x2="0.5" y2="28.5"/><line class="cls-2" x1="-71.5" y1="25.5" x2="0.5" y2="25.5"/><line class="cls-2" x1="-71.5" y1="22.5" x2="0.5" y2="22.5"/><line class="cls-2" x1="-71.5" y1="19.5" x2="0.5" y2="19.5"/><line class="cls-2" x1="-71.5" y1="16.5" x2="0.5" y2="16.5"/><line class="cls-2" x1="-71.5" y1="13.5" x2="0.5" y2="13.5"/><line class="cls-2" x1="-71.5" y1="10.5" x2="0.5" y2="10.5"/><line class="cls-2" x1="-71.5" y1="7.5" x2="0.5" y2="7.5"/><line class="cls-2" x1="-71.5" y1="4.5" x2="0.5" y2="4.5"/><line class="cls-2" x1="-71.5" y1="1.5" x2="0.5" y2="1.5"/></pattern><linearGradient id="Безымянный_градиент_2" x1="0.1" y1="592.45" x2="76.9" y2="592.45" gradientTransform="translate(0 -354)" gradientUnits="userSpaceOnUse"><stop offset="0.02" stop-color="#174d6b"/><stop offset="0.26" stop-color="#1f5370"/><stop offset="1" stop-color="#dee6f5"/></linearGradient><linearGradient id="Безымянный_градиент_3" x1="313.73" y1="599.54" x2="364.73" y2="599.54" gradientTransform="translate(-236.93 -363.56)" gradientUnits="userSpaceOnUse"><stop offset="0.01" stop-color="#7da7d9"/><stop offset="0.07" stop-color="#35517d"/><stop offset="0.5" stop-color="#dee6f5"/><stop offset="0.62" stop-color="#bacdea"/><stop offset="0.67" stop-color="#b6cbe9"/><stop offset="0.71" stop-color="#aac3e6"/><stop offset="0.76" stop-color="#96b7e0"/><stop offset="0.81" stop-color="#7aa5d8"/><stop offset="1" stop-color="#174d6b"/></linearGradient></defs><title>Монтажная область 1</title><g id="Layer_5" data-name="Layer 5"><rect class="cls-1" x="-31.5" y="194.2" width="192.1" height="87.6"/><path class="cls-3" d="M25.8,58.9S35.2,32,59.9,14.8C79.7,1,87.5,0,87.5,0l.8,11.2Z"/><path class="cls-4" d="M18.4,225.8,21.5,74s2.8-26.3,26.3-42.4S98.6,7.7,98.6,7.7l3,183.5Z"/><path class="cls-5" d="M18.4,225.8,21.5,74s2.8-26.3,26.3-42.4S98.6,7.7,98.6,7.7l3,183.5Z"/><polygon class="cls-6" points="0.1 281.2 0.1 235.3 76.9 195.7 76.9 281.2 0.1 281.2"/><polygon class="cls-5" points="0.1 281.2 0.1 235.3 76.9 195.7 76.9 281.2 0.1 281.2"/><path class="cls-7" d="M76.9,198.3s12.6-5.5,24.7-7c28.1-3.6,25.6,12.1,25.6,12.1l.6,77.8h-51Z"/><path class="cls-5" d="M76.9,198.3s12.6-5.5,24.7-7c28.1-3.6,25.6,12.1,25.6,12.1l.6,77.8h-51Z"/><path class="cls-8" d="M.1,238.5l76.8-37.8v1.1s19.4-7.4,34-6c10.9,1,13.5,3.5,16.3,7.7"/><polygon class="cls-9" points="86.7 261.3 86.7 281.2 89.2 281.2 89.2 261.1 86.7 261.3"/><polygon class="cls-9" points="98.5 281.2 98.5 260.5 102.2 260.5 102.3 281.2 98.5 281.2"/><polygon class="cls-9" points="109.9 281.2 113.8 281.2 113.8 260.9 109.9 260.7 109.9 281.2"/><polygon class="cls-9" points="119.9 261.4 119.9 281.2 122 281.2 122 261.6 119.9 261.4"/><line class="cls-8" x1="76.9" y1="195.7" x2="76.9" y2="281.2"/><path class="cls-10" d="M.1,260.5,76.9,242v1.9s18.5-3.4,27.5-3.6,23.1,2.4,23.1,2.4v5.2c-5.2-1.6-19.6-2.5-27.2-2.4s-23.5,3.6-23.5,3.6v-1.3L0,263.8Z"/><path class="cls-10" d="M.1,268.6l76.8-14v1.9s17.9-3.4,31.7-3.1,19,1.9,19,1.9l.3,7s-12.1-1.5-24.6-1.8a155.91,155.91,0,0,0-26.4,2.2V261L.1,271Z"/><g id="cloud1.psd-2" class="cls-11"><image id="Layer_1-5" data-name="Layer 1-5" class="cls-12" width="3498" height="2161" transform="translate(19.91 58.86) scale(0.02)" xlink:href="C654C4784FF3C60E.png"/></g><g id="cloud1.psd-3" class="cls-11"><image id="Layer_1-6" data-name="Layer 1-6" class="cls-12" width="3572" height="2174" transform="translate(43.03 123.22) scale(0.02)" xlink:href="C654C4784FF3C604.png"/></g></g></svg>