<svg id="Слой_1" data-name="Слой 1" xmlns="http://www.w3.org/2000/svg" xmlns:xlink="http://www.w3.org/1999/xlink" viewBox="0 0 217.31 146.86"><defs><style>.cls-1{fill:none;}.cls-2{clip-path:url(#clip-path);}.cls-3{fill:#fef5d7;}.cls-4{fill:#e8af92;}.cls-5{fill:#cd8e6e;}.cls-6{fill:#eacdb2;}.cls-7{fill:#57525b;}.cls-8{fill:#7c4735;}.cls-9{fill:#ce9278;}.cls-10{fill:#a96945;}.cls-11{fill:#935f54;}.cls-12{fill:#91351f;}.cls-13{fill:#fff;}</style><clipPath id="clip-path"><rect class="cls-1" x="-8.86" y="-20.96" width="232.08" height="167.59"/></clipPath></defs><title>Монтажная область 1</title><g id="Layer_5" data-name="Layer 5"><rect class="cls-1" y="58.42" width="192.1" height="87.63"/><g class="cls-2"><polygon class="cls-3" points="75.38 32.41 107.18 32.41 108.97 126.42 73.4 126.42 75.38 32.41"/><polygon class="cls-4" points="208.74 78.99 216.98 146.37 125.26 152.98 122.61 39.52 208.74 78.99"/><polygon class="cls-4" points="8.97 81.71 4.68 129.95 59.68 124.11 61.21 58.79 57.95 57.59 8.97 81.71"/><polygon class="cls-3" points="12.21 77.11 13.24 67.6 11.38 64.47 61.21 34.56 61.21 54.81 57.95 53.49 12.21 77.11"/><polygon class="cls-5" points="4.68 129.95 -0.48 130.98 -0.48 132.87 59.37 128.1 59.68 124.11 4.68 129.95"/><polygon class="cls-6" points="59.37 128.1 58.99 152.98 72.86 152.98 75.38 29.46 71.68 28.54 69.37 30.85 65.68 30.85 63.14 28.54 61.21 29.97 61.21 34.56 61.21 54.81 61.21 58.79 59.68 124.11 59.37 128.1"/><polygon class="cls-7" points="4.68 132.46 3.87 149.01 58.99 152.98 59.37 128.1 4.68 132.46"/><polygon class="cls-6" points="107.18 28.54 109.38 27.64 111.4 27.64 113.05 29.33 116.47 29.33 118.66 27.64 121.36 27.64 122.37 29.33 125.26 152.98 109.45 152.98 107.18 28.54"/><polygon class="cls-7" points="73.4 128.49 108.97 128.49 109.45 152.98 72.86 152.98 73.4 128.49"/><polygon class="cls-6" points="122.5 34.56 210.55 77.11 208.74 78.99 122.61 39.52 122.5 34.56"/><polygon class="cls-8" points="122.93 53.26 126.17 51.9 208.29 86.37 204.97 88.63 126.17 56.77 123.06 58.65 122.93 53.26"/><polygon class="cls-5" points="124.61 125.19 131.54 124.11 214.98 129.95 214.98 131.87 131.74 127.46 124.69 128.49 124.61 125.19"/><polygon class="cls-4" points="76.93 19.38 107.18 18.84 107.18 28.54 107.18 32.41 76.93 32.77 76.93 19.38"/><polygon class="cls-7" points="82.68 36.99 101.56 36.99 103.89 126.42 82.34 126.42 82.68 36.99"/><polygon class="cls-4" points="72.2 19.38 70.45 19.38 70.45 17.95 78.69 17.95 78.69 19.38 72.2 19.38"/><rect class="cls-4" x="105.24" y="17.13" width="7.81" height="1.75"/><polygon class="cls-9" points="71.68 28.54 72.2 19.38 76.93 19.38 76.93 32.41 75.38 32.41 75.38 29.46 71.68 28.54"/><polygon class="cls-9" points="111.4 27.64 110.95 18.84 107.18 18.84 107.18 28.54 109.38 27.64 111.4 27.64"/><polygon class="cls-9" points="74.57 17.95 75.03 7.19 73.93 7.19 73.93 4.68 80.25 4.68 80.25 6.69 79.06 6.69 78.69 17.95 74.57 17.95"/><polygon class="cls-9" points="103.89 4.68 109.91 4.68 109.91 6.14 108.44 6.14 109.15 17.13 105.24 17.13 104.87 6.42 103.89 6.42 103.89 4.68"/><polygon class="cls-4" points="80.25 6.69 83.36 6.69 92.06 1.84 101.12 6.69 103.89 6.42 104.87 6.42 105.24 18.88 78.69 19.38 79.06 6.69 80.25 6.69"/><rect class="cls-9" x="89.4" y="4.68" width="1.37" height="14.07"/><rect class="cls-9" x="91.28" y="4.68" width="1.37" height="14.07"/><rect class="cls-9" x="93.16" y="4.68" width="1.37" height="14.07"/><rect class="cls-9" x="89.4" y="18.61" width="1.37" height="14.32"/><rect class="cls-9" x="91.28" y="18.61" width="1.37" height="14.32"/><rect class="cls-9" x="93.16" y="18.61" width="1.37" height="14.32"/><rect class="cls-8" x="82.9" y="14.75" width="1.65" height="4.52"/><rect class="cls-8" x="100.04" y="14.75" width="1.26" height="4.2"/><rect class="cls-8" x="80.25" y="28.02" width="2.1" height="4.74"/><rect class="cls-8" x="101.85" y="27.64" width="2.04" height="4.77"/><rect class="cls-6" x="9.84" y="53.72" width="54.79" height="1.27" transform="translate(-21.64 24.78) rotate(-28.92)"/><rect class="cls-10" x="77.83" y="128.49" width="5.73" height="24.49"/><rect class="cls-10" x="88.21" y="128.49" width="6.14" height="24.49"/><polygon class="cls-10" points="104.79 152.98 98.45 152.98 98.45 128.49 104.44 128.49 104.79 152.98"/><polygon class="cls-9" points="112.35 34.56 117.57 34.56 120.72 152.98 114.15 152.98 112.35 34.56"/><polygon class="cls-9" points="65.54 35.21 70.78 35.21 69.13 152.98 62.25 152.98 65.54 35.21"/><polygon class="cls-4" points="82.64 46.72 101.85 46.72 101.9 50.31 82.68 50.31 82.64 46.72"/><polygon class="cls-4" points="82.6 57.59 102.09 57.59 102.09 60.89 82.68 61.25 82.6 57.59"/><polygon class="cls-4" points="82.54 73.33 102.67 73.33 102.67 76.46 82.54 77.11 82.54 73.33"/><polygon class="cls-4" points="82.64 89.27 102.92 89.27 103.02 92.87 82.64 92.87 82.64 89.27"/><polygon class="cls-4" points="82.54 106.23 103.37 106.23 103.45 109.46 82.68 109.46 82.54 106.23"/><rect class="cls-9" x="42.57" y="81.06" width="89.43" height="1.27" transform="translate(5.42 168.82) rotate(-89.89)"/><rect class="cls-9" x="91.83" y="37.39" width="1.27" height="89.03" transform="matrix(1, 0, 0, 1, -0.37, 0.42)"/><rect class="cls-9" x="97.29" y="36.98" width="1.27" height="89.44" transform="translate(-0.98 1.19) rotate(-0.69)"/><rect class="cls-9" x="-15.09" y="104.25" width="49.25" height="1.65" transform="translate(-95.96 106.69) rotate(-85.69)"/><rect class="cls-9" x="-10.5" y="102.45" width="51.67" height="1.65" transform="translate(-88.84 110.19) rotate(-85.35)"/><rect class="cls-9" x="-5.72" y="100.71" width="53.82" height="1.65" transform="translate(-81.61 115.35) rotate(-85.87)"/><rect class="cls-9" x="0.07" y="98.56" width="56.78" height="1.65" transform="translate(-72.82 120.13) rotate(-85.6)"/><rect class="cls-9" x="6.74" y="96.27" width="59.46" height="1.65" transform="translate(-62.5 128.1) rotate(-86.81)"/><rect class="cls-9" x="13.98" y="93.56" width="62.91" height="1.65" transform="translate(-51.15 134.94) rotate(-87.07)"/><rect class="cls-9" x="22.15" y="90.63" width="66.56" height="1.65" transform="translate(-38.12 143.27) rotate(-87.76)"/><polygon class="cls-9" points="56.03 76.02 10.55 94.1 10.55 91.44 56.16 72.7 56.03 76.02"/><polygon class="cls-9" points="9.66 103.29 55.51 89.27 55.37 92.87 9.66 106.23 9.66 103.29"/><polygon class="cls-9" points="54.84 106.23 8.68 116.25 8.48 118.96 54.69 110.06 54.84 106.23"/><polygon class="cls-11" points="126.11 43.7 126.11 48.52 132.72 50.66 132.48 46.72 126.11 43.7"/><polygon class="cls-11" points="137.15 48.52 143.64 51.31 143.64 55.61 137.55 53.3 137.15 48.52"/><polygon class="cls-11" points="147.38 53.1 147.38 57.59 153.3 59.71 153.3 55.61 147.38 53.1"/><polygon class="cls-11" points="156.74 57.59 162.28 59.71 162.56 63.88 156.74 61.57 156.74 57.59"/><polygon class="cls-11" points="165.34 61.25 165.34 64.87 170.17 66.8 170.17 63.62 165.34 61.25"/><polygon class="cls-11" points="172.88 64.87 177.19 66.8 177.64 70.26 172.88 68.51 172.88 64.87"/><polygon class="cls-11" points="179.96 67.98 184.06 69.51 184.32 73.14 179.96 71.29 179.96 67.98"/><polygon class="cls-11" points="186.46 71.09 186.46 73.94 189.95 75.34 189.95 72.55 186.46 71.09"/><polygon class="cls-11" points="192.09 73.61 195.64 75.06 196.03 77.97 192.09 76.58 192.09 73.61"/><polygon class="cls-11" points="197.69 75.79 200.93 77.31 201.39 80.36 197.69 78.99 197.69 75.79"/><polygon class="cls-4" points="51.92 48.52 57.95 45.07 57.95 49.7 51.92 53.19 51.92 48.52"/><polygon class="cls-4" points="48.24 50.78 48.24 54.83 42.79 57.59 43.05 53.49 48.24 50.78"/><polygon class="cls-4" points="34.55 58.19 39.49 55.15 39.17 59.42 34.55 62.25 34.55 58.19"/><polygon class="cls-4" points="31.76 59.42 31.76 63.96 27.07 66.25 27.32 62.83 31.76 59.42"/><polygon class="cls-4" points="24.78 63.9 24.34 67.89 20.6 69.73 20.6 66.25 24.78 63.9"/><polygon class="cls-4" points="18.32 67.6 18.32 71.25 14.39 73.33 14.77 69.42 18.32 67.6"/><polygon class="cls-8" points="54.12 128.49 53.33 152.57 45.44 152.01 46.41 129.1 54.12 128.49"/><polygon class="cls-8" points="43.05 129.4 41.73 151.74 34.82 151.24 36.14 129.95 43.05 129.4"/><polygon class="cls-8" points="33.66 130.15 32.51 151.07 26.24 150.62 27.3 130.64 33.66 130.15"/><polygon class="cls-8" points="23.93 130.93 23.16 150.4 18.74 150.08 19.25 131.3 23.93 130.93"/><polygon class="cls-8" points="17.44 131.44 16.79 149.94 13.24 149.68 13.63 131.75 17.44 131.44"/><polygon class="cls-8" points="11.38 131.93 11.03 149.52 5.86 149.15 7 132.28 11.38 131.93"/><polygon class="cls-7" points="129.17 127.83 130.23 152.63 141.01 151.85 140.06 127.99 131.74 127.46 129.17 127.83"/><polygon class="cls-7" points="142.33 128.02 142.95 151.71 152.12 151.05 151.61 128.49 142.33 128.02"/><polygon class="cls-7" points="153.49 128.61 154.35 150.88 162.97 150.26 162.97 129.3 153.49 128.61"/><polygon class="cls-7" points="164.89 129.21 164.89 150.13 172.1 149.6 172.1 129.64 164.89 129.21"/><polygon class="cls-7" points="174.12 129.7 174.43 149.44 180.24 149.02 179.66 130 174.12 129.7"/><polygon class="cls-7" points="181.4 130.09 181.94 148.89 187.26 148.51 186.88 130.38 181.4 130.09"/><polygon class="cls-7" points="188.75 130.48 189.14 148.38 193.62 148.05 193.03 130.7 188.75 130.48"/><polygon class="cls-7" points="194.53 130.78 195.42 147.92 199.7 147.61 198.21 130.98 194.53 130.78"/><polygon class="cls-7" points="200.44 131.1 201.66 147.47 205.72 147.18 203.76 131.27 200.44 131.1"/><polygon class="cls-7" points="206.09 131.39 208.05 147.01 212.85 146.67 210.55 131.63 206.09 131.39"/><polygon class="cls-11" points="123.06 58.65 126.17 56.77 129.17 124.48 124.61 125.19 123.06 58.65"/><polygon class="cls-11" points="142.33 124.86 138.83 61.89 135.33 60.48 138.83 124.62 142.33 124.86"/><polygon class="cls-11" points="146.19 64.87 150.36 125.43 152.94 125.61 149.2 66.08 146.19 64.87"/><polygon class="cls-11" points="159.91 126.1 162.97 126.31 158.82 69.97 156.07 68.86 159.91 126.1"/><polygon class="cls-11" points="164.32 72.2 167.12 73.33 172.1 126.95 169.28 126.75 164.32 72.2"/><polygon class="cls-11" points="172.1 75.34 174.4 76.27 180.24 127.52 177.78 127.46 172.1 75.34"/><polygon class="cls-11" points="179.66 78.4 184.73 127.83 187.82 128.1 182.38 79.5 179.66 78.4"/><path class="cls-11" d="M186.46,81.15c.13,0,5.63,47.2,5.63,47.2l2,.14-5.33-46.4Z"/><polygon class="cls-11" points="192.6 83.63 197.74 128.75 200.44 128.93 194.12 84.24 192.6 83.63"/><polygon class="cls-11" points="198.21 85.9 203.65 129.16 205.72 129.3 199.94 86.6 198.21 85.9"/><polygon class="cls-11" points="203.31 87.96 208.93 129.53 210.55 129.64 204.97 88.63 203.31 87.96"/><polygon class="cls-11" points="123.28 67.98 205.72 97.59 206.46 99.57 123.4 73.14 123.28 67.98"/><polygon class="cls-11" points="127.46 85.9 206.93 104.82 207.55 107.6 127.46 90.31 127.46 85.9"/><polygon class="cls-11" points="128.3 104.82 209.18 117.59 209.18 119.55 128.53 110.06 128.3 104.82"/><polygon class="cls-8" points="6.71 79.95 57.95 53.49 61.21 54.81 61.21 58.79 57.95 57.59 8.97 81.71 6.71 79.95"/><rect class="cls-12" x="73.4" y="126.42" width="35.57" height="2.07"/><polygon class="cls-13" points="85.75 124.81 85.75 118.96 83.6 118.96 83.6 124.81 80.33 124.81 80.33 118.96 78.18 118.96 78.18 124.81 78.18 126.42 80.33 126.42 83.6 126.42 85.75 126.42 87.19 126.42 87.19 124.81 85.75 124.81"/><polygon class="cls-13" points="92.68 118.96 92.68 121.92 89.34 121.92 89.34 118.96 87.19 118.96 87.19 121.92 87.19 123.54 89.34 123.54 92.68 123.54 92.68 124.81 88.8 124.81 88.8 126.42 92.68 126.42 94.83 126.42 94.83 124.81 94.83 118.96 92.68 118.96"/><polygon class="cls-13" points="101.74 118.96 100.21 121.92 98.45 118.96 96.3 118.96 96.3 126.42 98.45 126.42 98.45 122.69 99.56 124.45 101.01 124.45 101.74 122.96 101.74 126.42 103.89 126.42 103.89 118.96 101.74 118.96"/></g></g></svg>