<?xml version="1.0" encoding="utf-8"?>
<!-- Generator: Adobe Illustrator 22.1.0, SVG Export Plug-In . SVG Version: 6.00 Build 0)  -->
<svg version="1.1" id="Слой_1" xmlns="http://www.w3.org/2000/svg" xmlns:xlink="http://www.w3.org/1999/xlink" x="0px" y="0px"
	 viewBox="0 0 208.9 67.2" style="enable-background:new 0 0 208.9 67.2;" xml:space="preserve">
<style type="text/css">
	.st0{fill:none;}
	.st1{fill:none;stroke:#A9B7BF;stroke-width:2;stroke-dasharray:2,1;}
	.st2{display:none;}
	.st3{display:inline;fill:#CFF0FF;}
	.st4{display:inline;}
	.st5{display:inline;fill:none;stroke:#FFFFFF;stroke-width:0.5;stroke-miterlimit:10;}
	.st6{clip-path:url(#SVGID_2_);}
	.st7{display:inline;fill:none;stroke:#CFF0FF;stroke-width:0.5;stroke-miterlimit:10;}
	.st8{fill:none;stroke:#FFFFFF;stroke-width:2;stroke-miterlimit:10;}
	.st9{fill:url(#SVGID_3_);}
	.st10{fill:url(#SVGID_4_);}
	.st11{fill:url(#SVGID_5_);}
	.st12{fill:url(#SVGID_6_);}
	.st13{fill:url(#SVGID_7_);}
	.st14{fill:url(#SVGID_8_);}
	.st15{fill:url(#SVGID_9_);}
	.st16{fill:url(#SVGID_10_);}
	.st17{fill:#517497;}
	.st18{fill:#518EA8;}
	.st19{fill:url(#SVGID_11_);}
	.st20{fill:url(#SVGID_12_);}
	.st21{fill:#316F84;}
	.st22{fill:url(#SVGID_13_);}
	.st23{fill:url(#SVGID_14_);}
	.st24{fill:url(#SVGID_15_);}
	.st25{fill:#494949;}
	.st26{fill:#A7A1DE;}
	.st27{fill:#EBE8EB;}
	.st28{fill:url(#SVGID_16_);}
	.st29{fill:url(#SVGID_17_);}
</style>
<pattern  x="-33.7" y="100.5" width="72" height="72" patternUnits="userSpaceOnUse" id="USGS_7_Vineyard" viewBox="71.5 -72 72 72" style="overflow:visible;">
	<g>
		<rect x="71.5" y="-72" class="st0" width="72" height="72"/>
		<rect x="71.5" y="-72" class="st0" width="72" height="72"/>
		<line class="st1" x1="72" y1="-70.5" x2="144" y2="-70.5"/>
		<line class="st1" x1="72" y1="-67.5" x2="144" y2="-67.5"/>
		<line class="st1" x1="72" y1="-64.5" x2="144" y2="-64.5"/>
		<line class="st1" x1="72" y1="-61.5" x2="144" y2="-61.5"/>
		<line class="st1" x1="72" y1="-58.5" x2="144" y2="-58.5"/>
		<line class="st1" x1="72" y1="-55.5" x2="144" y2="-55.5"/>
		<line class="st1" x1="72" y1="-52.5" x2="144" y2="-52.5"/>
		<line class="st1" x1="72" y1="-49.5" x2="144" y2="-49.5"/>
		<line class="st1" x1="72" y1="-46.5" x2="144" y2="-46.5"/>
		<line class="st1" x1="72" y1="-43.5" x2="144" y2="-43.5"/>
		<line class="st1" x1="72" y1="-40.5" x2="144" y2="-40.5"/>
		<line class="st1" x1="72" y1="-37.5" x2="144" y2="-37.5"/>
		<line class="st1" x1="72" y1="-34.5" x2="144" y2="-34.5"/>
		<line class="st1" x1="72" y1="-31.5" x2="144" y2="-31.5"/>
		<line class="st1" x1="72" y1="-28.5" x2="144" y2="-28.5"/>
		<line class="st1" x1="72" y1="-25.5" x2="144" y2="-25.5"/>
		<line class="st1" x1="72" y1="-22.5" x2="144" y2="-22.5"/>
		<line class="st1" x1="72" y1="-19.5" x2="144" y2="-19.5"/>
		<line class="st1" x1="72" y1="-16.5" x2="144" y2="-16.5"/>
		<line class="st1" x1="72" y1="-13.5" x2="144" y2="-13.5"/>
		<line class="st1" x1="72" y1="-10.5" x2="144" y2="-10.5"/>
		<line class="st1" x1="72" y1="-7.5" x2="144" y2="-7.5"/>
		<line class="st1" x1="72" y1="-4.5" x2="144" y2="-4.5"/>
		<line class="st1" x1="72" y1="-1.5" x2="144" y2="-1.5"/>
		<line class="st1" x1="0" y1="-70.5" x2="72" y2="-70.5"/>
		<line class="st1" x1="0" y1="-67.5" x2="72" y2="-67.5"/>
		<line class="st1" x1="0" y1="-64.5" x2="72" y2="-64.5"/>
		<line class="st1" x1="0" y1="-61.5" x2="72" y2="-61.5"/>
		<line class="st1" x1="0" y1="-58.5" x2="72" y2="-58.5"/>
		<line class="st1" x1="0" y1="-55.5" x2="72" y2="-55.5"/>
		<line class="st1" x1="0" y1="-52.5" x2="72" y2="-52.5"/>
		<line class="st1" x1="0" y1="-49.5" x2="72" y2="-49.5"/>
		<line class="st1" x1="0" y1="-46.5" x2="72" y2="-46.5"/>
		<line class="st1" x1="0" y1="-43.5" x2="72" y2="-43.5"/>
		<line class="st1" x1="0" y1="-40.5" x2="72" y2="-40.5"/>
		<line class="st1" x1="0" y1="-37.5" x2="72" y2="-37.5"/>
		<line class="st1" x1="0" y1="-34.5" x2="72" y2="-34.5"/>
		<line class="st1" x1="0" y1="-31.5" x2="72" y2="-31.5"/>
		<line class="st1" x1="0" y1="-28.5" x2="72" y2="-28.5"/>
		<line class="st1" x1="0" y1="-25.5" x2="72" y2="-25.5"/>
		<line class="st1" x1="0" y1="-22.5" x2="72" y2="-22.5"/>
		<line class="st1" x1="0" y1="-19.5" x2="72" y2="-19.5"/>
		<line class="st1" x1="0" y1="-16.5" x2="72" y2="-16.5"/>
		<line class="st1" x1="0" y1="-13.5" x2="72" y2="-13.5"/>
		<line class="st1" x1="0" y1="-10.5" x2="72" y2="-10.5"/>
		<line class="st1" x1="0" y1="-7.5" x2="72" y2="-7.5"/>
		<line class="st1" x1="0" y1="-4.5" x2="72" y2="-4.5"/>
		<line class="st1" x1="0" y1="-1.5" x2="72" y2="-1.5"/>
	</g>
</pattern>
<pattern  x="-33.7" y="100.5" width="72" height="72" patternUnits="userSpaceOnUse" id="USGS_7_Vineyard-5" viewBox="71.5 -72 72 72" style="overflow:visible;">
	<g>
		<rect x="71.5" y="-72" class="st0" width="72" height="72"/>
		<rect x="71.5" y="-72" class="st0" width="72" height="72"/>
		<line class="st1" x1="72" y1="-70.5" x2="144" y2="-70.5"/>
		<line class="st1" x1="72" y1="-67.5" x2="144" y2="-67.5"/>
		<line class="st1" x1="72" y1="-64.5" x2="144" y2="-64.5"/>
		<line class="st1" x1="72" y1="-61.5" x2="144" y2="-61.5"/>
		<line class="st1" x1="72" y1="-58.5" x2="144" y2="-58.5"/>
		<line class="st1" x1="72" y1="-55.5" x2="144" y2="-55.5"/>
		<line class="st1" x1="72" y1="-52.5" x2="144" y2="-52.5"/>
		<line class="st1" x1="72" y1="-49.5" x2="144" y2="-49.5"/>
		<line class="st1" x1="72" y1="-46.5" x2="144" y2="-46.5"/>
		<line class="st1" x1="72" y1="-43.5" x2="144" y2="-43.5"/>
		<line class="st1" x1="72" y1="-40.5" x2="144" y2="-40.5"/>
		<line class="st1" x1="72" y1="-37.5" x2="144" y2="-37.5"/>
		<line class="st1" x1="72" y1="-34.5" x2="144" y2="-34.5"/>
		<line class="st1" x1="72" y1="-31.5" x2="144" y2="-31.5"/>
		<line class="st1" x1="72" y1="-28.5" x2="144" y2="-28.5"/>
		<line class="st1" x1="72" y1="-25.5" x2="144" y2="-25.5"/>
		<line class="st1" x1="72" y1="-22.5" x2="144" y2="-22.5"/>
		<line class="st1" x1="72" y1="-19.5" x2="144" y2="-19.5"/>
		<line class="st1" x1="72" y1="-16.5" x2="144" y2="-16.5"/>
		<line class="st1" x1="72" y1="-13.5" x2="144" y2="-13.5"/>
		<line class="st1" x1="72" y1="-10.5" x2="144" y2="-10.5"/>
		<line class="st1" x1="72" y1="-7.5" x2="144" y2="-7.5"/>
		<line class="st1" x1="72" y1="-4.5" x2="144" y2="-4.5"/>
		<line class="st1" x1="72" y1="-1.5" x2="144" y2="-1.5"/>
		<line class="st1" x1="0" y1="-70.5" x2="72" y2="-70.5"/>
		<line class="st1" x1="0" y1="-67.5" x2="72" y2="-67.5"/>
		<line class="st1" x1="0" y1="-64.5" x2="72" y2="-64.5"/>
		<line class="st1" x1="0" y1="-61.5" x2="72" y2="-61.5"/>
		<line class="st1" x1="0" y1="-58.5" x2="72" y2="-58.5"/>
		<line class="st1" x1="0" y1="-55.5" x2="72" y2="-55.5"/>
		<line class="st1" x1="0" y1="-52.5" x2="72" y2="-52.5"/>
		<line class="st1" x1="0" y1="-49.5" x2="72" y2="-49.5"/>
		<line class="st1" x1="0" y1="-46.5" x2="72" y2="-46.5"/>
		<line class="st1" x1="0" y1="-43.5" x2="72" y2="-43.5"/>
		<line class="st1" x1="0" y1="-40.5" x2="72" y2="-40.5"/>
		<line class="st1" x1="0" y1="-37.5" x2="72" y2="-37.5"/>
		<line class="st1" x1="0" y1="-34.5" x2="72" y2="-34.5"/>
		<line class="st1" x1="0" y1="-31.5" x2="72" y2="-31.5"/>
		<line class="st1" x1="0" y1="-28.5" x2="72" y2="-28.5"/>
		<line class="st1" x1="0" y1="-25.5" x2="72" y2="-25.5"/>
		<line class="st1" x1="0" y1="-22.5" x2="72" y2="-22.5"/>
		<line class="st1" x1="0" y1="-19.5" x2="72" y2="-19.5"/>
		<line class="st1" x1="0" y1="-16.5" x2="72" y2="-16.5"/>
		<line class="st1" x1="0" y1="-13.5" x2="72" y2="-13.5"/>
		<line class="st1" x1="0" y1="-10.5" x2="72" y2="-10.5"/>
		<line class="st1" x1="0" y1="-7.5" x2="72" y2="-7.5"/>
		<line class="st1" x1="0" y1="-4.5" x2="72" y2="-4.5"/>
		<line class="st1" x1="0" y1="-1.5" x2="72" y2="-1.5"/>
	</g>
</pattern>
<g id="Layer_4" class="st2">
	<rect x="-33.7" y="-356.5" class="st3" width="249.7" height="424.6"/>
	<rect x="-26.6" y="-356.6" class="st3" width="235.4" height="424"/>
</g>
<g id="Layer_1-4" class="st2">
	<rect x="-3" y="-3.4" class="st5" width="23.5" height="23.5"/>
	<rect x="-3" y="20.1" class="st5" width="23.5" height="23.5"/>
	<rect x="-3" y="43.7" class="st5" width="23.5" height="23.5"/>
	<rect x="20.5" y="-3.4" class="st5" width="23.5" height="23.5"/>
	<rect x="20.5" y="20.1" class="st5" width="23.5" height="23.5"/>
	<rect x="20.5" y="43.7" class="st5" width="23.5" height="23.5"/>
	<rect x="44" y="-3.4" class="st5" width="23.5" height="23.5"/>
	<rect x="44" y="20.1" class="st5" width="23.5" height="23.5"/>
	<rect x="44" y="43.7" class="st5" width="23.5" height="23.5"/>
	<rect x="67.6" y="-3.4" class="st5" width="23.5" height="23.5"/>
	<rect x="67.6" y="20.1" class="st5" width="23.5" height="23.5"/>
	<rect x="67.6" y="43.7" class="st5" width="23.5" height="23.5"/>
	<rect x="91.1" y="-3.4" class="st5" width="23.5" height="23.5"/>
	<rect x="91.1" y="20.1" class="st5" width="23.5" height="23.5"/>
	<rect x="91.1" y="43.7" class="st5" width="23.5" height="23.5"/>
	<rect x="114.7" y="-3.4" class="st5" width="23.5" height="23.5"/>
	<rect x="114.7" y="20.1" class="st5" width="23.5" height="23.5"/>
	<rect x="114.7" y="43.7" class="st5" width="23.5" height="23.5"/>
	<rect x="138.2" y="-3.4" class="st5" width="23.5" height="23.5"/>
	<rect x="138.2" y="20.1" class="st5" width="23.5" height="23.5"/>
	<rect x="138.2" y="43.7" class="st5" width="23.5" height="23.5"/>
	<rect x="161.8" y="-3.4" class="st5" width="23.5" height="23.5"/>
	<rect x="161.8" y="20.1" class="st5" width="23.5" height="23.5"/>
	<rect x="161.8" y="43.7" class="st5" width="23.5" height="23.5"/>
	<rect x="185.3" y="-3.4" class="st5" width="23.5" height="23.5"/>
	<rect x="185.3" y="20.1" class="st5" width="23.5" height="23.5"/>
	<rect x="185.3" y="43.7" class="st5" width="23.5" height="23.5"/>
</g>
<g id="Layer_1_copy" class="st2">
	<g class="st4">
		<defs>
			<polygon id="SVGID_1_" points="186,-3.4 162.5,-3.4 138.9,-3.4 138.9,-27 115.4,-27 91.8,-27 91.8,-3.4 68.3,-3.4 44.8,-3.4 
				21.2,-3.4 -2.3,-3.4 -2.3,20.1 -2.3,43.7 -25.9,43.7 -25.9,67.2 -2.3,67.2 21.2,67.2 44.8,67.2 68.3,67.2 91.8,67.2 115.4,67.2 
				138.9,67.2 162.5,67.2 186,67.2 209.6,67.2 209.6,43.7 209.6,20.1 209.6,-3.4 			"/>
		</defs>
		<clipPath id="SVGID_2_">
			<use xlink:href="#SVGID_1_"  style="overflow:visible;"/>
		</clipPath>
		<g class="st6">
			
				<image style="overflow:visible;enable-background:new    ;" width="1950" height="1300" xlink:href="6DE3C2BDBF543080.jpeg"  transform="matrix(0.13 0 0 0.13 -25.87 -62.2833)">
			</image>
		</g>
	</g>
	<rect x="-3" y="-3.4" class="st7" width="23.5" height="23.5"/>
	<rect x="-3" y="20.1" class="st7" width="23.5" height="23.5"/>
	<rect x="-3" y="43.7" class="st7" width="23.5" height="23.5"/>
	<rect x="20.5" y="-3.4" class="st7" width="23.5" height="23.5"/>
	<rect x="20.5" y="20.1" class="st7" width="23.5" height="23.5"/>
	<rect x="20.5" y="43.7" class="st7" width="23.5" height="23.5"/>
	<rect x="44" y="-3.4" class="st7" width="23.5" height="23.5"/>
	<rect x="44" y="20.1" class="st7" width="23.5" height="23.5"/>
	<rect x="44" y="43.7" class="st7" width="23.5" height="23.5"/>
	<rect x="67.6" y="-3.4" class="st7" width="23.5" height="23.5"/>
	<rect x="67.6" y="20.1" class="st7" width="23.5" height="23.5"/>
	<rect x="67.6" y="43.7" class="st7" width="23.5" height="23.5"/>
	<rect x="91.1" y="-3.4" class="st7" width="23.5" height="23.5"/>
	<rect x="91.1" y="20.1" class="st7" width="23.5" height="23.5"/>
	<rect x="91.1" y="43.7" class="st7" width="23.5" height="23.5"/>
	<rect x="114.7" y="-3.4" class="st7" width="23.5" height="23.5"/>
	<rect x="114.7" y="20.1" class="st7" width="23.5" height="23.5"/>
	<rect x="114.7" y="43.7" class="st7" width="23.5" height="23.5"/>
	<rect x="138.2" y="-3.4" class="st7" width="23.5" height="23.5"/>
	<rect x="138.2" y="20.1" class="st7" width="23.5" height="23.5"/>
	<rect x="138.2" y="43.7" class="st7" width="23.5" height="23.5"/>
	<rect x="161.8" y="-3.4" class="st7" width="23.5" height="23.5"/>
	<rect x="161.8" y="20.1" class="st7" width="23.5" height="23.5"/>
	<rect x="161.8" y="43.7" class="st7" width="23.5" height="23.5"/>
	<rect x="185.3" y="-3.4" class="st7" width="23.5" height="23.5"/>
	<rect x="185.3" y="20.1" class="st7" width="23.5" height="23.5"/>
	<rect x="185.3" y="43.7" class="st7" width="23.5" height="23.5"/>
</g>
<g id="Layer_5">
	<rect x="-3" y="-20.4" class="st0" width="192.1" height="87.6"/>
	<polyline class="st8" points="7.3,67.1 12.2,26.9 198.8,26.9 204.1,67.1 	"/>
	<path class="st8" d="M123.7,9.7c0-4.8-7.8-8.6-17.5-8.6S88.8,4.9,88.8,9.7"/>
	<line class="st8" x1="0" y1="9.7" x2="208.9" y2="9.7"/>
	
		<linearGradient id="SVGID_3_" gradientUnits="userSpaceOnUse" x1="105.005" y1="-280.5833" x2="105.005" y2="-320.7633" gradientTransform="matrix(1 0 0 -1 0 -253.6667)">
		<stop  offset="0" style="stop-color:#6CB5E4"/>
		<stop  offset="9.000000e-02" style="stop-color:#63B0E1"/>
		<stop  offset="0.24" style="stop-color:#49A3D9"/>
		<stop  offset="0.44" style="stop-color:#208DCC"/>
		<stop  offset="0.57" style="stop-color:#007CC2"/>
		<stop  offset="1" style="stop-color:#0059A9"/>
	</linearGradient>
	<rect x="12.2" y="26.9" class="st9" width="185.7" height="40.2"/>
	<pattern  id="SVGID_4_" xlink:href="#USGS_7_Vineyard" patternTransform="matrix(1.04 0 0 -1.04 85.3101 -16557.2871)">
	</pattern>
	<rect x="12.2" y="26.9" class="st10" width="185.7" height="40.2"/>
	
		<linearGradient id="SVGID_5_" gradientUnits="userSpaceOnUse" x1="83.09" y1="-299.1783" x2="130.13" y2="-299.1783" gradientTransform="matrix(1 0 0 -1 0 -253.6667)">
		<stop  offset="1.000000e-02" style="stop-color:#375270"/>
		<stop  offset="9.000000e-02" style="stop-color:#3A5675"/>
		<stop  offset="0.2" style="stop-color:#456284"/>
		<stop  offset="0.32" style="stop-color:#55779D"/>
		<stop  offset="0.45" style="stop-color:#6C93C0"/>
		<stop  offset="0.53" style="stop-color:#7DA7D9"/>
		<stop  offset="0.57" style="stop-color:#7AA2D1"/>
		<stop  offset="0.86" style="stop-color:#6983A4"/>
		<stop  offset="1" style="stop-color:#627793"/>
	</linearGradient>
	<rect x="83.1" y="27.4" class="st11" width="47" height="36.1"/>
	<pattern  id="SVGID_6_" xlink:href="#USGS_7_Vineyard" patternTransform="matrix(1.04 0 0 -1.04 85.3101 -16557.2871)">
	</pattern>
	<rect x="83.1" y="27.4" class="st12" width="47" height="36.1"/>
	
		<linearGradient id="SVGID_7_" gradientUnits="userSpaceOnUse" x1="26.29" y1="-294.8883" x2="34.83" y2="-294.8883" gradientTransform="matrix(1 0 0 -1 0 -253.6667)">
		<stop  offset="3.000000e-02" style="stop-color:#C3C9D1"/>
		<stop  offset="0.14" style="stop-color:#D2D5DA"/>
		<stop  offset="0.35" style="stop-color:#F9F4F1"/>
		<stop  offset="0.38" style="stop-color:#FFF9F5"/>
		<stop  offset="0.51" style="stop-color:#F0EDF2"/>
		<stop  offset="0.72" style="stop-color:#CFD1EA"/>
		<stop  offset="1" style="stop-color:#D1D3D4"/>
		<stop  offset="1" style="stop-color:#C6C6C5"/>
	</linearGradient>
	<rect x="26.3" y="18.9" class="st13" width="8.5" height="44.7"/>
	
		<linearGradient id="SVGID_8_" gradientUnits="userSpaceOnUse" x1="174.99" y1="-294.8883" x2="183.53" y2="-294.8883" gradientTransform="matrix(1 0 0 -1 0 -253.6667)">
		<stop  offset="3.000000e-02" style="stop-color:#C3C9D1"/>
		<stop  offset="0.14" style="stop-color:#D2D5DA"/>
		<stop  offset="0.35" style="stop-color:#F9F4F1"/>
		<stop  offset="0.38" style="stop-color:#FFF9F5"/>
		<stop  offset="0.51" style="stop-color:#F0EDF2"/>
		<stop  offset="0.72" style="stop-color:#CFD1EA"/>
		<stop  offset="1" style="stop-color:#D1D3D4"/>
		<stop  offset="1" style="stop-color:#C6C6C5"/>
	</linearGradient>
	<rect x="175" y="18.9" class="st14" width="8.5" height="44.7"/>
	
		<linearGradient id="SVGID_9_" gradientUnits="userSpaceOnUse" x1="7.32" y1="-300.6733" x2="26.29" y2="-300.6733" gradientTransform="matrix(1 0 0 -1 0 -253.6667)">
		<stop  offset="0" style="stop-color:#807B80"/>
		<stop  offset="0.66" style="stop-color:#F3F4F4"/>
		<stop  offset="0.83" style="stop-color:#E4E6E6"/>
		<stop  offset="1" style="stop-color:#D1D3D4"/>
		<stop  offset="1" style="stop-color:#A7A9AC"/>
	</linearGradient>
	<polygon class="st15" points="12.2,26.9 21,26.9 26.3,67.1 7.3,67.1 	"/>
	
		<linearGradient id="SVGID_10_" gradientUnits="userSpaceOnUse" x1="185.11" y1="-300.6733" x2="204.09" y2="-300.6733" gradientTransform="matrix(1 0 0 -1 0 -253.6667)">
		<stop  offset="0" style="stop-color:#A7A9AC"/>
		<stop  offset="0.33" style="stop-color:#F3F4F4"/>
		<stop  offset="0.45" style="stop-color:#E5E5E6"/>
		<stop  offset="0.67" style="stop-color:#C0BEC0"/>
		<stop  offset="0.98" style="stop-color:#858085"/>
		<stop  offset="1" style="stop-color:#807B80"/>
	</linearGradient>
	<polygon class="st16" points="190,26.9 198.8,26.9 204.1,67.1 185.1,67.1 	"/>
	<circle class="st17" cx="16.1" cy="33.1" r="2.2"/>
	<circle class="st17" cx="194.6" cy="34.1" r="2.3"/>
	<path class="st18" d="M106.5,1C96.9,1,89,4.9,89,9.7h35C124,4.9,116.2,1,106.5,1z"/>
	<pattern  id="SVGID_11_" xlink:href="#USGS_7_Vineyard-5" patternTransform="matrix(1.04 0 0 -1.04 85.3001 -16557.2871)">
	</pattern>
	<path class="st19" d="M106.5,1C96.9,1,89,4.9,89,9.7h35C124,4.9,116.2,1,106.5,1z"/>
	
		<linearGradient id="SVGID_12_" gradientUnits="userSpaceOnUse" x1="13.59" y1="-319.0033" x2="198.94" y2="-319.0033" gradientTransform="matrix(1 0 0 -1 0 -253.6667)">
		<stop  offset="0" style="stop-color:#0059A9"/>
		<stop  offset="1" style="stop-color:#0059A9"/>
	</linearGradient>
	<rect x="13.6" y="63.6" class="st20" width="185.4" height="3.5"/>
	<rect x="66" y="27.4" class="st21" width="17.1" height="36.1"/>
	<pattern  id="SVGID_13_" xlink:href="#USGS_7_Vineyard" patternTransform="matrix(1.04 0 0 -1.04 85.3101 -16557.2871)">
	</pattern>
	<rect x="66" y="27.4" class="st22" width="17.1" height="36.1"/>
	<rect x="130.1" y="27.4" class="st21" width="17.1" height="36.1"/>
	<pattern  id="SVGID_14_" xlink:href="#USGS_7_Vineyard" patternTransform="matrix(1.04 0 0 -1.04 85.3101 -16557.2871)">
	</pattern>
	<rect x="130.1" y="27.4" class="st23" width="17.1" height="36.1"/>
	
		<linearGradient id="SVGID_15_" gradientUnits="userSpaceOnUse" x1="104.425" y1="-263.3434" x2="104.425" y2="-272.5334" gradientTransform="matrix(1 0 0 -1 0 -253.6667)">
		<stop  offset="0" style="stop-color:#E5E2DF"/>
		<stop  offset="0" style="stop-color:#DED9D6"/>
		<stop  offset="6.000000e-02" style="stop-color:#CFCAC9"/>
		<stop  offset="0.18" style="stop-color:#A8A4A7"/>
		<stop  offset="0.26" style="stop-color:#8B878D"/>
		<stop  offset="0.52" style="stop-color:#F3F4F4"/>
		<stop  offset="0.58" style="stop-color:#E5E5E6"/>
		<stop  offset="0.7" style="stop-color:#C0BEC0"/>
		<stop  offset="0.86" style="stop-color:#858085"/>
		<stop  offset="0.88" style="stop-color:#807B80"/>
		<stop  offset="1" style="stop-color:#D1D3D4"/>
		<stop  offset="1" style="stop-color:#A7A9AC"/>
	</linearGradient>
	<path class="st24" d="M0,9.7h208.8l0,0v2.9c0,3.5-2.8,6.3-6.3,6.3l0,0H6.3c-3.5,0-6.3-2.8-6.3-6.3l0,0L0,9.7L0,9.7L0,9.7z"/>
	<polygon class="st25" points="6.5,18.9 25.8,26.9 183.5,28.4 202.3,18.9 	"/>
	<path class="st26" d="M88.3,12h1.7c1.1,0,1.6,0.6,1.6,1.2c0,0.5-0.3,0.9-0.7,1c0.1,0,0.2,0.1,0.3,0.1c0.4,0.2,0.7,0.6,0.7,1
		c0,1-0.7,1.3-1.8,1.3h-1.7V12z M90,13.8c0.3,0,0.6-0.1,0.6-0.5s-0.3-0.5-0.6-0.5h-0.6v1L90,13.8z M90,15.8c0.3,0,0.8-0.1,0.8-0.6
		s-0.5-0.6-0.8-0.6h-0.7v1.2H90z"/>
	<path class="st26" d="M93.7,14.3c0-1.3,1.1-2.4,2.4-2.4s2.4,1.1,2.4,2.4c0,1.3-1.1,2.4-2.4,2.4C94.8,16.7,93.7,15.7,93.7,14.3
		C93.7,14.3,93.7,14.3,93.7,14.3z M97.4,14.3c0.1-0.7-0.4-1.4-1.1-1.5c-0.7-0.1-1.4,0.4-1.5,1.1c0,0.1,0,0.2,0,0.3
		c-0.1,0.7,0.4,1.4,1.1,1.5c0.7,0.1,1.4-0.4,1.5-1.1C97.4,14.5,97.4,14.4,97.4,14.3z"/>
	<path class="st26" d="M101.7,16.6h-1V12h1v1.8h0.3c0.3,0,0.6-0.2,0.7-0.5l0.7-1.3h1.1l-0.8,1.5c-0.2,0.3-0.4,0.6-0.8,0.7
		c0.4,0.1,0.7,0.4,0.8,0.7l1,1.7h-1.2l-0.8-1.4c-0.2-0.4-0.3-0.5-0.7-0.5h-0.4L101.7,16.6z"/>
	<path class="st26" d="M107.4,13.8h0.6c0.4,0,0.6-0.1,0.6-0.5s-0.3-0.5-0.7-0.5c-0.4,0-0.8,0.2-1,0.5l-0.6-0.6
		c0.4-0.5,1.1-0.9,1.7-0.8c0.9,0,1.6,0.5,1.6,1.3c-0.6,0.3-0.9,1-0.6,1.6c0.1,0.3,0.4,0.6,0.8,0.7c0,0.9-0.8,1.3-1.7,1.3
		c-0.7,0-1.4-0.3-1.8-0.8l0.6-0.6c0.3,0.3,0.7,0.5,1.1,0.5c0.5,0,0.8-0.2,0.8-0.6s-0.3-0.5-0.7-0.5h-0.8L107.4,13.8z"/>
	<path class="st26" d="M113.1,12h1.1l1.7,4.6h-1.1l-0.4-1.1h-1.6l-0.4,1.1h-1.1L113.1,12z M114.2,14.7l-0.6-1.7l-0.6,1.7H114.2z"/>
	<path class="st26" d="M122,12v4.6h-1v-3.7h-1.1c-0.1,2.5-0.6,3.7-2.1,3.7h-0.1v-0.9c0.8,0,1.1-0.7,1.2-3.7L122,12z"/>
	<rect x="78.2" y="45.5" class="st27" width="56.5" height="4.6"/>
	
		<linearGradient id="SVGID_16_" gradientUnits="userSpaceOnUse" x1="83.09" y1="-299.1783" x2="91.86" y2="-299.1783" gradientTransform="matrix(1 0 0 -1 0 -253.6667)">
		<stop  offset="3.000000e-02" style="stop-color:#C3C9D1"/>
		<stop  offset="0.14" style="stop-color:#D2D5DA"/>
		<stop  offset="0.35" style="stop-color:#F9F4F1"/>
		<stop  offset="0.38" style="stop-color:#FFF9F5"/>
		<stop  offset="0.51" style="stop-color:#F0EDF2"/>
		<stop  offset="0.72" style="stop-color:#CFD1EA"/>
		<stop  offset="1" style="stop-color:#D1D3D4"/>
		<stop  offset="1" style="stop-color:#C6C6C5"/>
	</linearGradient>
	<rect x="83.1" y="27.4" class="st28" width="8.8" height="36.1"/>
	
		<linearGradient id="SVGID_17_" gradientUnits="userSpaceOnUse" x1="121.38" y1="-299.1783" x2="130.14" y2="-299.1783" gradientTransform="matrix(1 0 0 -1 0 -253.6667)">
		<stop  offset="3.000000e-02" style="stop-color:#C3C9D1"/>
		<stop  offset="0.14" style="stop-color:#D2D5DA"/>
		<stop  offset="0.35" style="stop-color:#F9F4F1"/>
		<stop  offset="0.38" style="stop-color:#FFF9F5"/>
		<stop  offset="0.51" style="stop-color:#F0EDF2"/>
		<stop  offset="0.72" style="stop-color:#CFD1EA"/>
		<stop  offset="1" style="stop-color:#D1D3D4"/>
		<stop  offset="1" style="stop-color:#C6C6C5"/>
	</linearGradient>
	<rect x="121.4" y="27.4" class="st29" width="8.8" height="36.1"/>
	<path class="st26" d="M97,47h1.7v1.9h-0.4v-1.5h-0.8v1.5H97V47z"/>
	<path class="st26" d="M99.3,47h0.4v1.9h-0.4V47z"/>
	<path class="st26" d="M100.5,47h0.7c0.5,0,0.7,0.2,0.7,0.5c0,0.2-0.1,0.3-0.3,0.4h0.1c0.2,0.1,0.3,0.2,0.3,0.4
		c0,0.4-0.3,0.6-0.8,0.6h-0.7L100.5,47z M101.2,47.8c0.1,0,0.3,0,0.3-0.2s-0.1-0.2-0.3-0.2h-0.3v0.4H101.2z M101.2,48.6
		c0.1,0,0.3,0,0.3-0.2s-0.2-0.2-0.3-0.2h-0.3v0.5H101.2z"/>
	<path class="st26" d="M104.3,47v1.6h0.2v0.8h-0.4v-0.5h-1.3v0.5h-0.4v-0.8h0.2c0.3-0.5,0.4-1,0.4-1.6H104.3z M103.9,47.4h-0.6
		c0,0.4-0.1,0.8-0.3,1.2h0.8L103.9,47.4z"/>
	<path class="st26" d="M105,47h1.3v0.4h-0.9v0.4h0.7v0.4h-0.7v0.4h1v0.4H105L105,47z"/>
	<path class="st26" d="M107,47h0.4v0.7h0.8V47h0.4v1.9h-0.4v-0.8h-0.8v0.8H107V47z"/>
	<path class="st26" d="M109.4,47h0.4v0.7h0.8V47h0.4v1.9h-0.4v-0.8h-0.8v0.8h-0.4V47z"/>
	<path class="st26" d="M113.5,48.9H113v-1.3l-0.9,1.3h-0.4V47h0.4v1.3l0.8-1.3h0.4L113.5,48.9z"/>
	<path class="st26" d="M115.8,48.9h-0.4v-1.3l-0.9,1.3h-0.4V47h0.4v1.3l0.8-1.3h0.4L115.8,48.9z M114.8,46.4c0,0.1,0.1,0.2,0.1,0.2
		c0,0,0,0,0,0c0.1,0,0.2-0.1,0.2-0.2c0,0,0,0,0,0h0.3c0,0.3-0.2,0.5-0.5,0.5s-0.5-0.2-0.5-0.5H114.8z"/>
</g>
</svg>
